<svg xmlns="http://www.w3.org/2000/svg" viewBox="0 0 750 500"><path fill="#fff" d="M367.73 68.49h97.9V282.5h-97.9z"/><path d="M471.63 288.5h-109.9v-226h109.9zm-97.9-12h85.9v-202h-85.9z" fill="#ebebeb"/><path fill="#ebebeb" d="M367.73 172.12h97.9v6.06h-97.9zM367.73 126.94h97.9V133h-97.9z"/><path fill="#ebebeb" d="M436.93 173.91V79.97h5.5v93.94zM413.93 173.91V79.97h5.5v93.94zM390.93 173.91V79.97h5.5v93.94z"/><path fill="#ebebeb" d="M356.59 61.49h120.18v21.94H356.59z"/><path fill="#dbdbdb" d="M356.59 61.49h120.18v15.3H356.59z"/><path fill="#ebebeb" d="M349.02 50.52h135.31v21.94H349.02z"/><path fill="#fff" d="M536.2 68.49h97.9V282.5h-97.9z"/><path d="M640.1 288.5H530.2v-226h109.9zm-97.9-12h85.9v-202h-85.9z" fill="#ebebeb"/><path fill="#ebebeb" d="M536.2 172.12h97.9v6.06h-97.9zM536.2 126.94h97.9V133h-97.9z"/><path fill="#ebebeb" d="M605.4 173.91V79.97h5.5v93.94zM582.4 173.91V79.97h5.5v93.94zM559.4 173.91V79.97h5.5v93.94z"/><path fill="#ebebeb" d="M525.06 61.49h120.18v21.94H525.06z"/><path fill="#dbdbdb" d="M525.06 61.49h120.18v15.3H525.06z"/><path fill="#ebebeb" d="M517.5 50.52h135.31v21.94H517.5z"/><g fill="#ebebeb"><ellipse cx="510.76" cy="445.98" rx="109.24" ry="17.26"/><ellipse cx="211.49" cy="445.98" rx="109.24" ry="17.26"/></g><g><path fill="#263238" d="M100.09 422.79l68.73-.24 68.73-.09L375 422.3l137.45.16 68.73.09 68.72.24-68.72.25-68.73.09-137.45.16-137.45-.16-68.73-.09-68.73-.25z"/></g><g><path fill="#c7c7c7" d="M130.44 64.97h161.7v357.82h-161.7z"/><path fill="#dbdbdb" d="M130.44 64.97h8.47v357.82h-8.47z"/><path fill="#ebebeb" d="M251.76 404.23l-112.84 18.56V64.97l112.84 26.16v313.1z"/><path d="M154.43 314.6c.12 3.38.19 6.77.27 10.15s.16 6.76.21 10.14q.17 10.16.23 20.3c.07 6.76.06 13.53.08 20.3s0 13.54-.09 20.31l-.68-.83c4.51-.55 9-1.07 13.55-1.53l6.78-.67c2.26-.21 4.52-.42 6.78-.59-2.26.45-4.52.86-6.78 1.26l-6.78 1.2c-4.52.78-9 1.5-13.55 2.19l-.68.1V396c-.07-6.77-.08-13.55-.1-20.33s0-13.56.06-20.35.12-13.56.23-20.35c0-3.39.12-6.79.2-10.18s.15-6.79.27-10.19zM188.53 383.81c-.12-3.74-.19-7.49-.27-11.23s-.16-7.49-.21-11.24q-.18-11.25-.25-22.51c-.06-7.5-.06-15-.09-22.52s0-15 .07-22.54l.69.9q-8.4.12-16.82.1c-2.81 0-5.61 0-8.41-.07s-5.61-.07-8.42-.16c2.81-.22 5.61-.39 8.42-.55s5.6-.34 8.41-.47q8.41-.4 16.82-.68h.69v.92c.07 7.5.07 15 .09 22.49s0 15-.06 22.5-.11 15-.22 22.52c0 3.75-.11 7.51-.19 11.27s-.14 7.46-.25 11.27zM202 312.42c.12 3.2.19 6.4.28 9.6s.16 6.4.21 9.6q.17 9.6.24 19.21c.07 6.4.07 12.81.09 19.21s0 12.82-.08 19.23l-.68-.79q6.78-.83 13.55-1.54l6.78-.68c2.26-.22 4.52-.44 6.78-.61-2.26.44-4.52.84-6.78 1.24l-6.77 1.18q-6.78 1.15-13.56 2.18l-.67.1v-.89c-.07-6.41-.09-12.83-.11-19.24s0-12.84.05-19.26.11-12.85.22-19.27c.05-3.21.11-6.42.2-9.63s.15-6.43.25-9.64zM236.16 377.69c-.12-3.53-.2-7.07-.28-10.6s-.16-7.08-.22-10.62q-.16-10.62-.25-21.25c-.08-7.09-.08-14.18-.11-21.27s0-14.19 0-21.28l.7.84c-5.61.09-11.22.12-16.82.12-2.81 0-5.61 0-8.42-.06s-5.61-.06-8.41-.14c2.8-.21 5.61-.37 8.41-.53s5.61-.32 8.41-.45c5.61-.26 11.22-.49 16.83-.66h.68v.87c.08 7.08.08 14.16.11 21.24s0 14.16 0 21.24-.1 14.18-.2 21.27c0 3.55-.11 7.09-.19 10.65s-.13 7.07-.24 10.63zM154.4 153.44c.12 3.41.19 6.8.27 10.2s.16 6.79.21 10.18q.17 10.17.23 20.34c.07 6.77.06 13.54.07 20.31s0 13.53-.08 20.3l-.68-1c4.51.27 9 .57 13.53.93l6.76.56c2.25.2 4.51.39 6.76.63h-13.52c-4.51 0-9-.14-13.53-.27h-.67v-.94c-.07-6.78-.08-13.56-.1-20.35s0-13.56.07-20.33.11-13.55.22-20.32q.07-5.07.21-10.14c.06-3.35.14-6.72.25-10.1zM188.43 228.83c-.11-3.76-.19-7.52-.27-11.28S188 210 188 206.28q-.16-11.28-.24-22.55c-.07-7.52-.07-15-.09-22.54s0-15 .07-22.53l.69 1q-8.4-1.41-16.79-3c-2.8-.5-5.6-1-8.4-1.59s-5.6-1.09-8.4-1.69c2.8.29 5.6.64 8.4 1s5.6.68 8.4 1.06q8.39 1.13 16.79 2.37l.68.1v.92c.07 7.51.07 15 .1 22.51s0 15-.07 22.48-.11 15-.21 22.48c0 3.75-.12 7.49-.2 11.24s-.18 7.54-.3 11.29zM201.9 159.9c.12 3.22.19 6.43.27 9.65s.16 6.42.22 9.63q.17 9.63.24 19.25c.07 6.41.07 12.82.08 19.22s0 12.81-.07 19.22L202 236q6.76.39 13.53.91l6.76.55c2.26.19 4.51.38 6.77.61h-6.77l-6.76-.05q-6.77-.08-13.53-.28h-.67v-.89c-.07-6.42-.09-12.84-.11-19.26s0-12.83.06-19.25.1-12.82.21-19.22c.05-3.2.11-6.4.2-9.6s.09-6.43.21-9.62zM236 231.34c-.12-3.55-.19-7.1-.28-10.65s-.16-7.1-.21-10.65q-.18-10.65-.26-21.3c-.07-7.1-.07-14.19-.1-21.28s0-14.19 0-21.27l.69 1q-8.38-1.4-16.79-2.93-4.2-.76-8.4-1.59c-2.79-.54-5.59-1.07-8.39-1.66 2.8.29 5.6.65 8.39 1s5.6.7 8.4 1.08q8.4 1.13 16.79 2.39l.69.1v.87c.07 7.09.07 14.17.1 21.25s0 14.16 0 21.23-.1 14.15-.2 21.22c0 3.54-.11 7.08-.19 10.61l-.24 10.58zM154.39 94c.23 3.57.38 7.11.5 10.64s.18 7.07.22 10.59l-.72-1.12q3.39.54 6.76 1.15c2.25.43 4.5.85 6.75 1.34s4.51 1 6.76 1.53 4.5 1.13 6.75 1.81c-2.25-.12-4.5-.34-6.75-.61s-4.5-.55-6.76-.89-4.5-.7-6.75-1.08-4.5-.82-6.75-1.27l-.74-.15v-1c0-3.51.11-7 .22-10.51s.28-6.99.51-10.43zM188.37 119.23c-.12-2-.2-3.93-.28-5.89s-.15-3.93-.21-5.88c-.11-3.92-.19-7.84-.23-11.74l.7 1.07c-2.79-.5-5.59-1.09-8.39-1.65s-5.59-1.19-8.39-1.85-5.57-1.29-8.39-2.06c-1.4-.36-2.8-.75-4.2-1.15s-2.8-.78-4.2-1.23c1.4.14 2.8.33 4.2.52s2.8.38 4.2.61q4.19.66 8.39 1.45c2.8.5 5.59 1.09 8.39 1.65s5.59 1.18 8.39 1.85l.72.17v.9q-.06 5.82-.23 11.63c-.05 1.94-.11 3.87-.2 5.8s-.16 3.88-.27 5.8zM201.85 103.61c.24 3.37.39 6.73.5 10.08s.19 6.68.24 10l-.72-1.06q3.38.54 6.75 1.16c2.25.42 4.51.84 6.76 1.32s4.5 1 6.75 1.52 4.51 1.11 6.76 1.78c-2.25-.14-4.5-.37-6.76-.64s-4.5-.57-6.75-.91-4.5-.71-6.75-1.09-4.51-.82-6.76-1.27l-.73-.15v-.91c0-3.33.11-6.64.22-10s.26-6.55.49-9.83zM235.84 127.85c-.12-1.86-.2-3.72-.28-5.57s-.16-3.71-.21-5.56c-.11-3.7-.2-7.4-.24-11.09l.7 1c-2.79-.51-5.59-1.1-8.39-1.66s-5.59-1.19-8.39-1.85-5.6-1.32-8.39-2c-1.4-.35-2.8-.74-4.2-1.13s-2.8-.78-4.2-1.21c1.4.14 2.8.34 4.2.54s2.8.39 4.2.62c2.79.45 5.59.93 8.39 1.46s5.59 1.1 8.39 1.66 5.59 1.19 8.39 1.85l.71.17v.86q-.06 5.49-.22 11c-.05 1.83-.11 3.66-.2 5.48s-.1 3.58-.26 5.43z" fill="#a6a6a6"/><path fill="#fff" d="M221.71 248.42l.04 33.94 14.23-.15-.04-33.35-14.23-.44z"/><path fill="#ebebeb" d="M225.1 255.94l.01 7.66 10.85-.95-.01-6.48-10.85-.23z"/><path fill="#fff" d="M225.1 252.1l.01 7.67 18.87.32-.01-7.48-18.87-.51z"/><path fill="#263238" d="M306.61 50.52v372.27h-14.46V64.97H130.44v357.82h-14.45V50.52h190.62z"/></g><g><path fill="#ffbd3b" d="M296.54 337.33h120.6v85.63h-120.6z"/><path fill="#263238" opacity=".1" d="M337.61 422.95h-41.06v-85.63h41.06z"/><path d="M299.37 417.06q4.56-9.13 9-18.33l8.91-18.42 8.79-18.49q4.38-9.27 8.67-18.6-4.57 9.13-9 18.33L316.83 380l-8.8 18.5q-4.36 9.23-8.66 18.56z" fill="#ffbd3b"/><path d="M299.37 343.22q4.29 9.33 8.66 18.6l8.8 18.49 8.91 18.42q4.47 9.19 9 18.33-4.29-9.33-8.67-18.59L317.32 380l-8.91-18.42q-4.47-9.22-9.04-18.36z" fill="#ffbd3b"/><path fill="#ebebeb" d="M310.75 337.33h12.47v21.92h-12.47z"/><path fill="#263238" d="M393.48 405.04h.87v12.32h-.87zM395.58 405.04h.87v12.32h-.87zM397.67 405.04h.87v12.32h-.87zM399.77 405.04h.87v12.32h-.87zM401.87 405.04h.87v12.32h-.87zM403.96 405.04h.87v12.32h-.87zM406.06 405.04h.87v12.32h-.87zM408.15 405.04h.87v12.32h-.87zM410.25 405.04h.87v12.32h-.87zM384.91 416.42l3.36.94h-7.89l3.36-.95v-4.52c-2.4-.32-3.36-2.69-3.36-6.84h7.89c0 4.14-1 6.52-3.36 6.84zM378.54 411.33h-2.06v6.03h-5.27v-6.03h-2.07l4.71-6.28 4.69 6.28z"/><path fill="#ffbd3b" d="M315.04 267h99.08v70.35h-99.08z"/><path fill="#263238" opacity=".1" d="M348.78 337.35h-33.74V267h33.74z"/><path d="M317.37 332.5q3.75-7.5 7.43-15.05l7.32-15.13 7.22-15.2q3.6-7.61 7.12-15.27-3.75 7.5-7.43 15L331.71 302l-7.22 15.2q-3.6 7.64-7.12 15.3z" fill="#ffbd3b"/><path d="M317.37 271.85q3.53 7.65 7.12 15.27l7.22 15.2 7.29 15.13q3.68 7.55 7.43 15.05-3.52-7.65-7.12-15.27L332.12 302l-7.32-15.1q-3.67-7.54-7.43-15.05z" fill="#ffbd3b"/><path fill="#ebebeb" d="M326.72 267h10.25v18.01h-10.25z"/><path fill="#263238" d="M394.69 322.64h.72v10.12h-.72zM396.41 322.64h.72v10.12h-.72zM398.13 322.64h.72v10.12h-.72zM399.85 322.64h.72v10.12h-.72zM401.57 322.64h.72v10.12h-.72zM403.3 322.64h.72v10.12h-.72zM405.02 322.64h.72v10.12h-.72zM406.74 322.64h.72v10.12h-.72zM408.46 322.64h.72v10.12h-.72zM387.64 332l2.77.77h-6.49l2.77-.77v-3.72c-2-.26-2.77-2.21-2.77-5.62h6.49c0 3.4-.79 5.36-2.77 5.62zM382.41 327.8h-1.69v4.95h-4.33v-4.95h-1.7l3.87-5.16 3.85 5.16z"/><path fill="#263238" opacity=".1" d="M414.12 337.35v-4.85l-65.34-8.97v13.82h65.34z"/></g><g><path d="M602.92 341.44s22.17-5 34.32-16.22S656.18 294 656.18 294a190.57 190.57 0 00-24.86 6.53c-2 2.12-5.77 6.49-7.53 10.63a50.78 50.78 0 010-7.6 33.75 33.75 0 00-7.9 4.79c-10.12 8.79-12.97 33.09-12.97 33.09z" fill="#ffbd3b"/><path d="M642.33 303.71c3-2.09 6.1-4.1 9.11-6.21.18-.13 0-.42-.18-.3-5.71 3.41-11.34 7.06-16.79 10.88-1.9 1.33-3.77 2.72-5.61 4.13.13-.22.25-.44.39-.66.66-1.11 1.36-2.21 2.06-3.3A47.19 47.19 0 01636 302c.06-.07 0-.17-.11-.1-1.72 2-3.45 4-5 6.07-.74 1-1.44 2-2.1 3.11-.35.55-.68 1.1-1 1.67-.1.19-.22.38-.33.57-2.87 2.25-5.66 4.6-8.32 7.08a92.908 92.908 0 00-4.76 4.76c.85-2.68 1.6-5.4 2.6-8 0-.09-.12-.13-.15 0-1 2.77-2 5.55-2.77 8.4q-2.55 2.75-4.85 5.71c0-.12 0-.24.08-.36.25-1 .51-2.09.79-3.12.54-2 1.13-4 1.81-6a34.71 34.71 0 016-11.24.08.08 0 00-.11-.11c-4.33 5.13-6.87 11.27-8.49 17.73-.23.94-.46 1.89-.67 2.84-.12.5-.25 1-.33 1.53-.67.91-1.33 1.82-2 2.76a96.24 96.24 0 00-9.38 18.39 214.61 214.61 0 00-7.11 22.15c0 .15.18.2.23.06 4.34-13 8.77-26.13 16.19-37.72a86 86 0 015.06-7.09 41.66 41.66 0 0010.72-2.21 48.07 48.07 0 0010.8-5.22 68.07 68.07 0 005.54-4.18.08.08 0 10-.1-.12 44.34 44.34 0 01-10.16 6.15 55.68 55.68 0 01-11.18 3.75c-1.64.36-3.29.62-5 .84a95.35 95.35 0 016.54-7.24c.75-.74 1.52-1.46 2.29-2.18A52.87 52.87 0 01629 316c3.63-1.75 7.21-3.61 10.8-5.44 2-1 4-2.09 6.09-3.08.09 0 0-.18-.08-.13-3.64 1.76-7.34 3.4-11 5.09-3.46 1.58-7 3.17-10.29 5l-.42.25c3-2.62 6.11-5.11 9.3-7.51 2.92-2.18 5.91-4.37 8.93-6.47z" fill="#263238"/><path d="M641.07 315.14c-1.8.79-3.63 1.49-5.42 2.33s-3.57 1.86-5.31 2.89c-.08.05 0 .15.07.12 1.76-.85 3.55-1.64 5.31-2.52s3.56-1.87 5.4-2.67c.09-.04.04-.19-.05-.15z" fill="#263238"/><path d="M530.91 229.72a31.74 31.74 0 016.63 18.41c.07 2-.25 4.76-.48 8 8.27 4.41 14.47 12.36 14.47 12.36-4.7-2.82-11.14-4-14.62-3.5a43.46 43.46 0 00.85 6.63c1.53-.09 4.5.12 9.4 1.86a21.14 21.14 0 00-8.48 1.68c4 12.57 15.7 25.49 48.13 31a68 68 0 00-5.74-45.64c-9.72-19.12-50.16-30.8-50.16-30.8z" fill="#ffbd3b"/><path d="M598 360q-.84-8.06-2.1-16.07a321.45 321.45 0 00-6.54-31.75 127.67 127.67 0 00-4.68-14.46 22.73 22.73 0 00.12-2.6V292c0-2.07-.12-4.15-.3-6.22a73.6 73.6 0 00-2-12.16c-.59-2.31-1.28-4.58-2-6.87 0-.09-.17-.05-.14 0a91.09 91.09 0 012.39 12.14 115.32 115.32 0 011.09 12.17c0 1.12.06 2.23.06 3.35v1.43a104.1 104.1 0 00-5.47-11.31 137.62 137.62 0 00-11.1-16.61 7 7 0 00-.27-1.81c-.15-.73-.31-1.45-.47-2.17-.33-1.49-.7-3-1.1-4.42-.81-2.94-1.88-5.78-2.79-8.68 0-.1-.18-.05-.15 0 .86 2.87 1.43 5.85 2.08 8.77.33 1.45.65 2.9 1 4.34.16.73.32 1.45.47 2.18v.16c-1.31-1.65-2.65-3.29-4-4.89-6.19-7.26-13-14-19.82-20.62-.84-.81-1.7-1.61-2.55-2.42a.08.08 0 00-.11.11c6.54 6.82 13 13.71 19.06 20.92 1.45 1.72 2.87 3.45 4.27 5.21l-2.21-1.47c-1.89-1.23-3.8-2.43-5.77-3.53s-4-2.19-6-3.19-4.3-1.87-6.31-3c-.09 0-.16.09-.07.13a46.72 46.72 0 015.91 3.28c2 1.17 3.95 2.35 5.89 3.58s3.82 2.4 5.71 3.63c1.58 1 3.13 2.14 4.77 3.09a151.62 151.62 0 0110.39 15.12 110.11 110.11 0 015.37 10.19l-1.16-.51-3-1.31c-1.91-.85-3.82-1.68-5.74-2.51-3.64-1.58-7.33-3-10.9-4.77a49.26 49.26 0 01-5.82-3.23c-.08-.06-.15.07-.07.13 6.65 4.58 14.1 7.81 21.46 11.07l3.19 1.41c.88.39 1.76.82 2.66 1.16a114.3 114.3 0 015.49 15 305.87 305.87 0 017 31.38c1.86 10.59 3.12 21.26 4.1 32 .12 1.33.24 2.67.39 4a.42.42 0 00.84 0c.09-5.45-.46-10.9-1.07-16.25z" fill="#263238"/><path d="M578.31 270.38c-.6-3.3-1.48-6.53-2.36-9.75a.08.08 0 00-.15 0c.82 3.17 1.41 6.4 2 9.61s1.15 6.58 1.61 9.88h.09a86.56 86.56 0 00-1.19-9.74zM564.33 279.32a58.13 58.13 0 00-7.05-4c-1.19-.61-2.38-1.19-3.58-1.77s-2.52-1.1-3.74-1.72a.08.08 0 00-.08.14c1.19.59 2.31 1.31 3.48 1.95l3.6 2c2.37 1.27 4.7 2.68 7.19 3.72a.18.18 0 00.18-.32z" fill="#263238"/><path d="M603.32 303s20.52-4.9 29.94-18.66c9-13.14 11.9-35.54 12.13-37.52-.37 1.81-4.6 21.39-18.57 30.51-10.69 7.03-21.02 12.77-23.5 25.67z" fill="#263238" opacity=".1"/><path d="M622.26 267.6a26.21 26.21 0 00-7.57 12.45h.07a30.54 30.54 0 017.6-12.36c.07-.05-.03-.16-.1-.09z" fill="#263238"/><path d="M603.32 303s20.52-4.9 29.94-18.66c9-13.14 11.9-35.54 12.13-37.52a.69.69 0 000-.13s-9.83 14-20.18 17.55-24.85 15.94-21.89 38.76z" fill="#ffbd3b"/><path d="M641.78 254.44a85 85 0 01-6.34 10.84A43.71 43.71 0 01627 274c-2.79 2.21-5.74 4.21-8.56 6.38a.61.61 0 00.07-.1c.53-.78 1.09-1.55 1.68-2.29 1.17-1.51 2.46-2.92 3.75-4.32 2.55-2.77 5.15-5.48 7.43-8.47a31.21 31.21 0 003.29-5.3c0-.09-.1-.14-.14-.05-3.33 6.93-10 11.37-14.71 17.22a29.78 29.78 0 00-1.9 2.6 10.86 10.86 0 00-1.18 2.08 43.35 43.35 0 00-7 7.07 29.57 29.57 0 01.82-4 19.91 19.91 0 012.18-5.19c0-.09-.08-.17-.13-.09a24.66 24.66 0 00-2.39 5.16 18.76 18.76 0 00-.75 4.43 40.49 40.49 0 00-2.77 4.31c.09-.44.17-.88.26-1.32.4-2 .85-4.08 1.38-6.09a36.48 36.48 0 014.94-11.56.08.08 0 00-.13-.08 43.87 43.87 0 00-5.46 11.3c-.66 2-1.18 4.06-1.64 6.13-.23 1-.43 2-.62 3-.1.53-.22 1.07-.3 1.61a73.26 73.26 0 00-4.73 13.9 205.06 205.06 0 00-4.39 25.98 216.49 216.49 0 00-1.41 27.54c0 1.15.09 2.3.15 3.45 0 .3.46.35.47 0 .21-4.55.32-9.1.59-13.65s.67-9.1 1.16-13.63a240 240 0 014.27-26.52c1.66-7.5 3.82-15 7.92-21.62a40.51 40.51 0 017.4-8.8c2.87-2.58 6-4.84 9.05-7.23a49.5 49.5 0 008.31-8 65.34 65.34 0 006.52-10.59l1.47-2.78c.1-.04-.08-.13-.12-.04z" fill="#263238"/><path d="M638.24 257.45a71 71 0 01-4.57 8 .05.05 0 10.09.06 56.31 56.31 0 004.62-8c.04-.1-.1-.15-.14-.06z" fill="#263238"/><path d="M528.05 294s-.33 29.15 17.11 37.56 26.77 1.41 38.61 4.23c-.46-.69-8.91-12.84-22.35-16.19-13.85-3.5-29.18-13.49-33.37-25.6z" fill="#ffbd3b"/><path d="M528.05 294s-.33 29.15 17.11 37.56 26.77 1.41 38.61 4.23a66 66 0 00-19.81-5.84C553 328.57 532 321.41 528.05 294z" opacity=".1"/><path d="M584.92 336.27a29.57 29.57 0 00-6.93-4.69c-.38-.18-.76-.32-1.14-.49a7.32 7.32 0 00-.59-.66 20.15 20.15 0 00-1.64-1.56 24.14 24.14 0 00-3.5-2.53c-2.89-1.7-6-2.89-9-4.47a.08.08 0 00-.07.14c1.46.75 2.87 1.59 4.29 2.42s2.8 1.57 4.14 2.44a29 29 0 013.45 2.59c.31.27.6.56.89.85a47.26 47.26 0 00-5.89-1.56c-3.19-.65-6.41-1.1-9.6-1.78a43.13 43.13 0 01-4.62-1.25c-1.45-1.16-2.89-2.32-4.26-3.58a35.63 35.63 0 01-4.51-5c0-.08-.18 0-.13.08a53.41 53.41 0 007.19 7.88c-.75-.28-1.5-.59-2.23-.92a35.92 35.92 0 01-14.85-12.36.08.08 0 00-.13.08 40.69 40.69 0 0012 11.54 35.87 35.87 0 007.59 3.59 69.1 69.1 0 009.43 2.23 66.4 66.4 0 019.24 2.2 27.76 27.76 0 017.75 4.07 36.29 36.29 0 0110.44 13c3.3 6.61 4.88 14 5.75 21.31 0 .31.52.31.5 0-.85-12.31-4.12-25.06-13.57-33.57z" fill="#263238"/><path d="M564.69 326.77a10 10 0 00-3.58-3.25 13.2 13.2 0 01-4.26-3.52c-.06-.08-.19 0-.13.07a14.06 14.06 0 003.76 3.37 13.1 13.1 0 014.1 3.4c.05.06.16 0 .11-.07z" fill="#263238"/><path fill="#37474f" d="M573.94 357.79l.79 16.03 2.43 48.97h36.57l2.43-48.97.79-16.03h-43.01z"/><path fill="#263238" d="M573.94 357.79l.79 16.03h41.43l.79-16.03h-43.01z"/><path fill="#37474f" d="M619.51 366.39h-48.14V351.1h48.14z"/></g><g><path d="M518.55 380.14v43.09c0 8.24-.07 15.46-.47 19.19a.13.13 0 010 .06 5.76 5.76 0 01-.59 2.55l-.05.05c-2.44 1.67-68.25 3.93-70.57 3.23s-.52-7.36 2-9.49 27.3-14.25 27.3-14.25l.42-43.05z" fill="#ad6359"/><path d="M518.54 414.39v8.84c0 8.24-.07 15.46-.47 19.19a.13.13 0 010 .06 11.3 11.3 0 01-.59 2.55l-.05.05c-2.44 1.67-68.25 3.93-70.57 3.23s-.52-7.36 2-9.49 27.3-14.25 27.3-14.25l-.12-9z" fill="#c7c7c7"/><path d="M446.85 448.31c2.33.7 68.12-1.55 70.57-3.23.94-.62 1.17-10.23 1.12-21.85v-.36l-42.46 1v.72s-24.8 12.13-27.3 14.26-4.25 8.78-1.93 9.46z" fill="#455a64"/><path d="M447.51 445.74c11.08-.66 55.84-2.24 66.84-2 .09 0 .1.06 0 .07-11 .88-55.74 2.1-66.85 2.15-.22-.04-.23-.21.01-.22zM472.55 424.82c4.33-1 9.69-.48 13.14 2.52.13.11 0 .3-.18.26a61.41 61.41 0 00-12.93-2.23.28.28 0 01-.03-.55zM469.46 426.83c4.34-1 9.7-.48 13.14 2.51.13.12 0 .31-.18.27a61.43 61.43 0 00-12.92-2.23.28.28 0 01-.04-.55zM466.38 428.83c4.33-1 9.69-.47 13.14 2.52.13.12 0 .3-.18.27a61.42 61.42 0 00-12.93-2.24.28.28 0 01-.03-.55z" fill="#263238"/><path fill="#263238" d="M522.32 220.47l-.04 2.85-1.61 125.86-.01.48-.95 75.39-46.06-.92 8.89-203.51.12-2.72.45-23.61h38.9l.31 26.18z"/><path d="M475.58 416.45c7.19-.07 5.13-.15 12.32-.13 3.52 0 26.64.09 29.92.67.08 0 .07.13 0 .15-3.29.5-26.41 0-29.93-.06-7.19-.15-5.13-.19-12.31-.42a.11.11 0 110-.21zM516.87 208.9c-1.69 26.45-2.9 52.94-4 79.43S511 341 510.54 367.39q-.39 22.31-.32 44.6a.08.08 0 00.16 0c.4-13.25.81-26.5 1.16-39.75s.67-26.5 1-39.74q1.08-39.53 2.68-79c.6-14.86 1.29-29.71 1.9-44.56.05-.24-.24-.23-.25-.04z" fill="#455a64"/><path d="M570.21 377.81s5.8 42.67 5.81 42.7c1.15 8.16 2 15.32 2.12 19.08v.06a5.64 5.64 0 01-.25 2.6v.06c-2.19 2-67.09 13.1-69.49 12.72s-1.51-7.23.66-9.67 25.13-17.8 25.13-17.8l-5.39-42.71z" fill="#ad6359"/><path d="M574.82 411.75s1.19 8.73 1.2 8.76c1.15 8.16 2 15.32 2.12 19.08v.06a11.26 11.26 0 01-.25 2.6v.06c-2.19 2-67.09 13.1-69.49 12.72s-1.51-7.23.66-9.67 25.13-17.8 25.13-17.8l-1.33-8.88z" fill="#c7c7c7"/><path d="M508.36 455c2.4.38 67.29-10.73 69.49-12.72.85-.75-.22-10.3-1.84-21.8v-.36l-42 6.7.14.71s-22.94 15.39-25.15 17.84-3 9.3-.64 9.63z" fill="#455a64"/><path d="M508.67 452.39c10.89-2.14 55-9.75 66-11 .09 0 .1 0 0 .07-10.75 2.36-54.95 9.61-65.94 11.15-.26-.01-.29-.17-.06-.22zM530.66 428.29c4.16-1.54 9.54-1.78 13.35.72.15.1 0 .31-.13.29a60.51 60.51 0 00-13.11-.47.28.28 0 01-.11-.54zM527.87 430.69c4.17-1.54 9.54-1.78 13.36.72.15.1 0 .31-.14.29a61.8 61.8 0 00-13.11-.47.28.28 0 01-.11-.54zM525.08 433.1c4.17-1.54 9.55-1.79 13.36.72.15.1 0 .3-.14.28a61.12 61.12 0 00-13.11-.46.28.28 0 01-.11-.54zM487.07 194.25c.17.8 2.89 13.42 5.71 24.26 2 7.92 4.16 14.88 5.37 15.6 1.37.81 8 3.77 10.29 4.7l10.22 97.75 13.84 90.58 45.21-7L545.54 222l-5.24-27.73z" fill="#263238"/><path d="M532.77 418.13c7.1-1.14 5.05-.92 12.16-2 3.48-.52 26.36-3.91 29.69-3.83.07 0 .09.13 0 .15-3.18 1-26.11 4-29.6 4.44-7.13.92-5.1.58-12.24 1.42a.1.1 0 01-.01-.18zM546.5 232.93c-1.2-.31-2.49-.41-3.72-.61-1-.15-2-.33-3-.54a13.07 13.07 0 01-5.22-2.2c-1.7-1.32-2.56-3.33-3.38-5.26-.49-1.15-1-2.28-1.51-3.42q-.36-.83-.75-1.65a16.74 16.74 0 01-.92-2c0-.1-.19-.05-.15 0a14.34 14.34 0 01.41 1.42c.17.56.33 1.11.5 1.66.3 1 .6 2 .93 2.95a23.05 23.05 0 002.09 5.17c1.81 2.89 5.06 4.06 8.3 4.47.93.11 1.87.18 2.8.23a19.94 19.94 0 003.54 0c.22.08.27-.15.08-.22zM494.61 232.38a87.83 87.83 0 0113.77 6.41c.17.1.05.37-.13.29-4.64-2-9.37-3.9-13.89-6.14a.31.31 0 01.25-.56zM493.21 200.61c0-.16.29-.2.29 0a155 155 0 00.78 15.49c.22 2.39 2.14 15.6 6.28 14.64.69-.16 1.05-.85 1.16-1.89a16.52 16.52 0 00-.55-4.05c-.46-2.77-.83-5.54-1.07-8.33a76.2 76.2 0 01.17-15.62.14.14 0 01.27 0 142.68 142.68 0 001.26 21.57c.52 3.43 2.25 8.6-1.35 9.13s-6-8.12-6.47-10.49a79.49 79.49 0 01-.77-20.45z" fill="#455a64"/><path d="M500.45 231.07a20.55 20.55 0 01.93 2.74 6.24 6.24 0 01.39 2.25.16.16 0 01-.29.06 8.1 8.1 0 01-1-2.19c-.31-.85-.65-1.69-.94-2.54a.46.46 0 01.91-.32zM562.33 373.42q-2.8-16.76-5.58-33.53c-3.68-22.28-7.46-44.56-10.79-66.9q-2.81-18.83-5.45-37.68c0-.22-.37-.22-.35 0 2.55 22.48 5.71 44.89 9.15 67.24s7.27 44.58 11.3 66.8c2.26 12.46 4.39 25 7 37.35 0 .12.23.09.21 0-1.62-11.14-3.64-22.2-5.49-33.28zM508.75 238.72c0-.19-.31-.19-.3 0 .79 14.61 8.71 93.7 12.16 111.66 0 .09.16.09.16 0-.43-14.63-11.35-103.46-12.02-111.66z" fill="#455a64"/><path d="M506.49 137.88c-1.38 7.74-7.83 25.67-19.78 41-4.62 5.9-21.54 12.61-35.19 16.69a106.65 106.65 0 01-15.47 3.65 15.25 15.25 0 01-1.6.13c-6.35.13-9.73-9.78-9.72-16.95v-.58-.32c.12-2.91.85-5.23 2.2-6a15.79 15.79 0 011.48-.73c2.57-1.11 7.07-2.56 12.23-4.1 1.21-.37 2.47-.74 3.74-1.11 12-3.51 25.76-7.18 27.17-8.26 2.15-1.66 16-14.82 24.44-26.51 6.14-8.59 12.78-9.79 10.5 3.09z" fill="#dd6a57"/><path d="M451.52 195.53a106.65 106.65 0 01-15.47 3.65 87.62 87.62 0 01-19.64.68c-4-.39-15.44-2.73-15.37-5.84s3.46-2.72 3.46-2.72-4.68-1.71-4.33-4.83c.29-2.56 3.87-2.5 5.16-2.4a.21.21 0 01.19 0h.23s-4.68-2.11-4.11-5.19c.51-2.76 4.69-1.72 5.57-1.47-.72-.31-4.06-1.92-2.68-4 1.85-2.82 9.54 1.28 14 1.48h3c3.54-2.18 7.86-4.09 9.72-4.34a60.15 60.15 0 019.38.07c1.21-.37 2.47-.74 3.74-1.11 2.26 3.03 8.77 13.17 7.15 26.02z" fill="#455a64"/><path d="M439.21 174.41l-.39 13.59v.35l-.29 10.31a20.63 20.63 0 01-2.47.52 87.62 87.62 0 01-19.64.68c-4-.39-15.44-2.73-15.37-5.84s3.46-2.72 3.46-2.72-4.68-1.71-4.33-4.83c.29-2.56 3.87-2.5 5.16-2.4h.44s-4.68-2.11-4.11-5.19c.51-2.76 4.69-1.72 5.57-1.47h.11-.08c-.72-.31-4.06-1.92-2.68-4 1.85-2.82 9.54 1.28 14 1.48h3l6.87-.17z" fill="#455a64"/><path d="M422.47 180.52a35.69 35.69 0 01-5.77.61 14.44 14.44 0 01-9.36-3.39c-.15-.11-.16-.22-.1-.28a.25.25 0 01.23 0 22 22 0 008.76 2.93 36.06 36.06 0 006.18-.08c.15.01.19.19.06.21zM421.54 187.22c-6.5.56-10.31.6-16.11-2.81-.18-.1-.21-.28-.11-.34a.21.21 0 01.19 0c6.12 2.59 9.37 3 16 3 .11-.02.12.14.03.15zM405 191.49c6.13 2.09 9.67 2.67 16.1 1.83a.12.12 0 010 .23c-6.47 1.5-10.89.81-16.19-1.87-.31-.18-.29-.32.09-.19z" fill="#263238"/><path d="M436.2 187.52a6.35 6.35 0 01-1-.28l-.27-.11c-5-2.17-6.1-10.05-6.1-10.05a30.87 30.87 0 01-5.39.24c-2.59-.11-5.18-.58-6.62-1.75a3.08 3.08 0 01-.89-1.13 2.64 2.64 0 01-.22-.74.16.16 0 010-.07c-.11-1.45 3-2.84 6.64-3.83 4-1.1 8.69-1.71 10.54-1.43a59.92 59.92 0 019 2.71c1.24.45 2.06.77 2.06.77s-1.7 16.97-7.75 15.67z" fill="#455a64"/><path d="M416.23 174.72c3.12 3.24 8.5 2.17 12.55 1.93a.36.36 0 01.39.46c.8 3.81 3 8.95 6.82 10.55.11.05.06.22-.06.18-4.29-1.17-6.9-6-7.51-10.27-4.14.31-9.58 1.15-12.22-2.82-.01-.03.01-.05.03-.03z" fill="#263238"/><path d="M499.69 161.23L475 156s17.7-21.33 24.68-26.14c7.85-5.41 8.9-.21 7.33 8.72s-7.32 22.65-7.32 22.65z" fill="#ffbd3b"/><path d="M499.69 161.23L475 156s17.7-21.33 24.68-26.14c7.85-5.41 8.9-.21 7.33 8.72s-7.32 22.65-7.32 22.65z" opacity=".1"/><path d="M547 215c-.16.18-65.34.39-66-.32-.88-1 12.74-75.95 19.84-85.21 1.52-2 12.27-3.83 16.59-.12 13.95 11.97 30.18 85.04 29.57 85.65z" fill="#ffbd3b"/><path opacity=".1" d="M516.58 155.16H504.2v-2h12.38z"/><path fill="#a6a6a6" d="M435.521 179.466l38.252-12.747 16.592 49.788-38.252 12.747z"/><path fill="#ebebeb" d="M444.894 173.447l18.136-6.022 1.825 5.495-18.137 6.022z"/><path fill="#ebebeb" d="M458.91 168.82l-2.23.75-.85-2.54-5.42 1.8.84 2.54-2.24.74-1.53-4.62 9.93-3.29 1.5 4.62z"/><path d="M523.13 134c10.67 13.76 33.75 49.3 27.32 56.78C539.9 203 514 213.91 505.88 216.37c-3.49 1.06-16-24.38-12.71-26.48 3.95-2.52 31.4-12.1 31.25-14.48-.08-1.35-5-13.75-7.82-28.26-3.26-16.82 2.88-17.9 6.53-13.15z" fill="#dd6a57"/><path d="M505.7 188.16s-10.7-3.1-17.7-4.79c-3.95-1-10.85-2-14.07-1.33-4.81.94-24.32 8-22.72 12.73 1.45 4.32 17.44-3.84 17.44-3.84s-16.87 6.8-14.17 11.68 19.52-6.75 19.52-6.75-17.18 7.38-13.6 12c2.71 3.47 18.56-6.2 18.56-6.2s-14.72 6.45-12.09 10.14c2.9 4.07 18.1-3.94 18.1-3.94 8.26 8.25 15.56 8.79 20.8 8.56 1.23-.08-.07-28.26-.07-28.26z" fill="#dd6a57"/><path d="M505.79 184.44a21.77 21.77 0 01-4.47 1.55c-3.74.36-9.28-1.64-13.36-2.62s-10.85-2-14.07-1.33c-4.81.94-24.32 8-22.72 12.73 1.45 4.32 17.44-3.84 17.44-3.84s-16.87 6.8-14.17 11.68 19.56-6.75 19.56-6.75-17.18 7.38-13.6 12c2.71 3.47 18.56-6.2 18.56-6.2s-14.72 6.45-12.09 10.14c2.9 4.07 18.1-3.94 18.1-3.94 8.26 8.25 15.56 8.79 20.8 8.56.26 0 9.31-2.41 9.3-3.45-.07-8.27-9.28-28.53-9.28-28.53z" fill="#455a64"/><path d="M474.3 188.2c-2 .73-4.05 1.45-6 2.35s-3.85 1.88-5.7 3a36.5 36.5 0 00-6.78 4.89c3.91-3.07 10.81-6.42 12.75-7.32s3.82-1.9 5.76-2.81c.06-.06.02-.13-.03-.11zM477.69 195.14c-2.53 1-5.07 2-7.56 3.13s-4.71 2.46-7.09 3.77c-.19.1-.07.17.12.07 2.43-1.22 4.78-2.15 7.23-3.34s4.85-2.48 7.33-3.57c.04-.02.01-.07-.03-.06zM481.67 200.58a61.17 61.17 0 00-11.18 5.67c-.18.11 0 .18.16.08 3.69-2 6.56-3.52 11.07-5.62.07-.03.04-.16-.05-.13z" fill="#263238"/><path d="M519.1 164.2l25.14-1.81s-14.59-23.57-20.84-29.29c-7-6.44-8.79-1.43-8.46 7.62s4.16 23.48 4.16 23.48z" fill="#ffbd3b"/><path d="M519.1 164.2l25.14-1.81s-14.59-23.57-20.84-29.29c-7-6.44-8.79-1.43-8.46 7.62s4.16 23.48 4.16 23.48z" opacity=".1"/><path d="M505 138.69c2.28.34 9-3.83 11.5-8.33.18-.31-1-12.76-.94-15.25 0-.51-15.66 3.61-15.66 3.61a40.06 40.06 0 011.4 9.58 5.48 5.48 0 01-.12 1v.17c-.42 1.96.42 8.72 3.82 9.22z" fill="#dd6a57"/><path d="M514.5 115.18c-.63 3.77-3.16 14.32-11.8 14.42a10 10 0 01-1.6-.11v-.17a6.5 6.5 0 00.11-1 39.74 39.74 0 00-1.39-9.58s11.18-2.96 14.68-3.56z" fill="#263238"/><path d="M511.59 123.92" fill="none"/><path d="M516 94c2.29 5.32 1.13 21.54-2.4 25.52-5.11 5.76-14.35 7.27-19.46.93-5-6.15-3.08-27.26.94-31C501 84 512.66 86.15 516 94z" fill="#dd6a57"/><path d="M501.86 105.32s.08.06.08.11c-.11 1.09-.05 2.35.92 2.78v.06c-1.21-.27-1.28-1.93-1-2.95z" fill="#263238"/><path d="M502.91 104.25c1.77 0 1.67 3.52 0 3.53s-1.48-3.52 0-3.53zM495.52 105.33s-.09 0-.09.09c0 1.1-.17 2.35-1.17 2.69v.06c1.22-.17 1.44-1.8 1.26-2.84z" fill="#263238"/><path d="M494.57 104.16c-1.75-.18-2 3.34-.36 3.51s1.84-3.36.36-3.51zM504.35 102.67a13 13 0 01-1.35-.52 2.29 2.29 0 01-1.28-.79.74.74 0 01.14-.9 1.82 1.82 0 011.87-.14 2.72 2.72 0 011.54 1.22.8.8 0 01-.92 1.13zM493.25 102.34c.5-.07.94-.21 1.42-.32a2.39 2.39 0 001.38-.61.75.75 0 000-.91 1.84 1.84 0 00-1.83-.4 2.73 2.73 0 00-1.7 1 .8.8 0 00.73 1.24zM502.59 115.51c-.26.25-.54.6-.93.62a2.79 2.79 0 01-1.17-.31l-.05.06a1.45 1.45 0 001.37.63 1.15 1.15 0 00.89-.94c.02-.07-.07-.09-.11-.06z" fill="#263238"/><path d="M501.53 112.2a3.72 3.72 0 01-2.53 1.6 5 5 0 01-1.34 0 1.09 1.09 0 01-.26 0h-.24a.28.28 0 01-.21-.25.41.41 0 010-.11v-.1c0-.84.12-2.12.12-2.12-.32.15-1.91.81-1.87.37a55.84 55.84 0 011.8-11.32.1.1 0 01.2 0c-.17 3.51-.95 7-1.18 10.49a6.87 6.87 0 011.78-.48c.12 0-.27 2.47-.24 2.84a5.15 5.15 0 003.89-1.1c.07-.02.15.1.08.18z" fill="#263238"/><path d="M498.17 113.41a4.42 4.42 0 001.73 1.42 2.06 2.06 0 001.21.11c.88-.21.92-1 .78-1.7a5.11 5.11 0 00-.36-1.06 5.73 5.73 0 01-3.36 1.23z" fill="#263238"/><path d="M499.9 114.83a2.06 2.06 0 001.21.11c.88-.21.92-1 .78-1.7a2.05 2.05 0 00-1.99 1.59z" fill="#f7a9a0"/><path d="M516.47 109c-2.93-.69-4.88-10.31-4.88-10.31s.23 4.11-.55 4-4.21-5.49-4.76-9.48a31.33 31.33 0 01-7.15 3.93c-3.61 1.27-7.29 1.16-7.21.54.25-1.9 1-6.64 2.41-8a13.84 13.84 0 0113.83-2.82c6.1 2 7.85 5.76 8.89 8.7s.5 13.65-.58 13.44z" fill="#263238"/><path d="M514.06 107.34s3.14-5.47 5.59-4.4.42 8.79-2.24 10.06a2.8 2.8 0 01-3.87-1.17z" fill="#dd6a57"/><path d="M519 105.14s.06 0 0 .07c-1.85 1-2.7 2.83-3.25 4.74a1.55 1.55 0 012.27-.62c.05 0 0 .11 0 .1a1.74 1.74 0 00-1.84.77 8.51 8.51 0 00-.77 1.61c-.07.18-.39.12-.34-.09-.27-2.49 1.33-6.1 3.93-6.58z" fill="#263238"/><path d="M492.32 93.44c1.53-.44 10.15-.56 14.08.94s11 6.76 11.4 7 1.53-14-10.08-16.06c-12.65-2.25-15.4 8.12-15.4 8.12z" fill="#ffbd3b"/><path d="M517.12 100.86s-8-9.7-12.36-11.8-13.84-3-19.57-.17c-4.48 2.21 6.91 7.59 6.91 7.59a3.18 3.18 0 011.68-2.28c2.8-1.25 8.25-.61 11.37.29 3.94 1.14 11.97 6.37 11.97 6.37z" fill="#ffbd3b"/><path d="M517.12 100.86s-8-9.7-12.36-11.8-13.84-3-19.57-.17c-4.48 2.21 6.91 7.59 6.91 7.59a3.18 3.18 0 011.68-2.28c2.8-1.25 8.25-.61 11.37.29 3.94 1.14 11.97 6.37 11.97 6.37z" opacity=".2"/><path d="M511.08 119.56c2.65-1.29 5.31-2.77 7-5.38a14.36 14.36 0 002.38-6.2 10.91 10.91 0 01-1 2.55 7.55 7.55 0 01-1.69 2.22 15.09 15.09 0 01-6.77 6.35c-.32.13-.18.59.08.46zM513.55 109.12c.46-.61 1.85-3.75 3.15-5 .2-.21.4-.42.62-.61a3.13 3.13 0 011.21-.7 2 2 0 00-1.18-.06c-2 .46-3.29 4.62-4 6.2-.03.15.12.28.2.17z" fill="#ebebeb"/><path d="M514 108.41c.32-.78-5.13 2.07-10.94 1.07-1.19-.2-4.53-1.42-6.36-1.36s-3.93 1.62-6.45 2c-.86.12.14 7.59 2.46 10.8.77 1 3.94 3.16 5.84 3.29 4.47.3 12-3.13 13.09-4.65.87-1.24-.7-3.77 2.36-11.15z" fill="#ebebeb"/><path d="M490.89 111.72a17.71 17.71 0 015.35-1.84 20.59 20.59 0 014.58.85 18.9 18.9 0 0010.65-.44s.07.06 0 .08a15.41 15.41 0 01-9.61.95c-1.75-.34-3.87-1.16-5.66-1a24.06 24.06 0 00-5.29 1.57c-.13.11-.18-.1-.02-.17zM494 120.29a30.64 30.64 0 003.69 1.71c1.51.44 3.26-.11 4.72-.51 2.77-.75 5.4-2 8.1-3a36 36 0 01-9.32 3.62 7.42 7.42 0 01-3.37.26 15.31 15.31 0 01-3.85-2s.03-.09.03-.08zM491.93 114.21a19.3 19.3 0 018.35-.52 33.59 33.59 0 009.8-.52s.05 0 0 .06a28.61 28.61 0 01-8.74.75c-1.42-.1-2.84-.32-4.26-.37a16.57 16.57 0 00-5.12.78c-.08.03-.13-.14-.03-.18zM492.69 117.06a14 14 0 008.36 1.54 37.67 37.67 0 008.52-2.64s.05.05 0 .07c-5.57 2.57-11.24 4.37-17 1.2-.06-.06.01-.23.12-.17z" fill="#dbdbdb"/></g><g><path d="M236.63 165a42.51 42.51 0 01-7.76 5.67c3.85-7.79 1.91-24.58 1.56-22.14-1.72 11.68-8 24.81-10.7 25.64a31.79 31.79 0 01-20-2.68c5.06-8.87 3.54-26 3.23-24.91-3.34 11.49-11.49 18.67-13 18.77-5.95-4.89-9.29-10-8.54-10.56 5.46-4.34 9.6-14.79 13.21-25.78 3.58-10.83 5-21 10.47-30.83 5-9 16.08-11.47 22.77-7.57C245.41 100.88 240 162 236.63 165z" fill="#263238"/><path d="M213.68 92.16c-4.54 1.44-8 6-10.15 10.07-2.83 5.45-4.51 11.51-6.75 17.21a116 116 0 01-17.92 31.15.2.2 0 00.3.27c8.46-7.43 13.88-17.6 18.17-28 2.19-5.29 3.81-10.78 5.86-16.12a35 35 0 014.33-8.31 21.56 21.56 0 016.48-5.5.43.43 0 00-.32-.77z" fill="#263238"/><path d="M295.25 447c-2.25.73-68.2-.27-70.62-1.85-.29-.18-.33-6.14-.25-14.31l-3.21-48.54 41.73.13 3.3 42s9.36 4.32 17.08 8.09a94.3 94.3 0 019.84 5.2c2.48 2.09 4.39 8.57 2.13 9.28z" fill="#f7a9a0"/><path d="M295.25 447c-2.25.73-68.2-.27-70.62-1.85-.29-.18-.33-6.14-.25-14.31 16.3 3.63 59.73 9.51 61 6.09.51-1.36-.53-2.91-2.08-4.35a94.3 94.3 0 019.84 5.2c2.46 2.03 4.37 8.51 2.11 9.22z" fill="#263238"/><path d="M203.55 205.69s11.8 125.42 12.08 126.94c0 .2.13 2.51.25 6.29.65 20.69 2.27 85.21 2.27 85.21h49.58s-3.23-76.42-5.09-94.25c-2.37-22.74-16.94-124.19-16.94-124.19z" fill="#37474f"/><path d="M221.55 336.87q-2.3-39.08-6.9-77.95c-1.74-14.6-3.84-29.16-5.92-43.72 0-.12-.22-.12-.2 0 3.84 25.91 6.56 52 8.9 78.11s4 52.16 5 78.29c.6 14.81 1.06 29.62 1.54 44.44a.27.27 0 00.54 0c-.66-26.41-1.42-52.81-2.96-79.17z" fill="#263238"/><path d="M264.6 416.14c-1.29-.18-2.71-.12-4-.17-1.49-.05-3-.06-4.47-.12-2.87-.11-5.74-.18-8.62-.23-5.79-.09-11.59-.06-17.37.12l-4.78.17c-1.69.07-3.4.22-5.09.21-.13 0-.13.16 0 .16 2.91 0 5.87.25 8.78.35s5.74.16 8.62.2c5.78.08 11.59 0 17.37-.18 1.59-.06 3.18-.09 4.78-.13l2.54-.11c.76 0 1.52 0 2.27-.08a.1.1 0 10-.03-.19zM239.36 205.69l-22.64 163.36c-.32-12.18-.64-23.44-.85-30.13-.11-3.77-.2-6.09-.24-6.29-.28-1.52-12.08-126.94-12.08-126.94z" fill="#263238"/><path d="M212.19 455.71c-2.36-.2-62.85-26.47-64.48-28.87-.2-.28 2-5.79 5.27-13.31l13.34-47 38.6 15.5-10.92 41.7s7 7.59 12.66 14a93.83 93.83 0 017.08 8.58c1.54 2.88.81 9.6-1.55 9.4z" fill="#f7a9a0"/><path d="M212.19 455.71c-2.36-.2-62.85-26.47-64.48-28.87-.2-.28 2-5.79 5.27-13.31 13.65 9.62 51.48 31.75 54 29.09 1-1.07.63-2.9-.25-4.82a93.83 93.83 0 017.08 8.58c1.47 2.81.74 9.53-1.62 9.33z" fill="#263238"/><path d="M148.64 408.7l48.37 15s23.62-82.9 25.43-102.37c1.8-19.29 3.53-58.7 4.29-87.29 0 0 8.09-4.79 10.13-7.4s3.9-12 7.93-21h-59.18c-14.14 27.46-3.5 39.69-3.5 45.68 0 28.92-4.37 67.31-5.76 73-2.9 11.93-27.71 84.38-27.71 84.38z" fill="#37474f"/><path d="M196.91 413.12c-1.21-.5-2.59-.82-3.85-1.2-1.43-.43-2.86-.83-4.29-1.27-2.74-.85-5.5-1.66-8.26-2.45q-8.35-2.38-16.82-4.37c-1.55-.37-3.1-.72-4.66-1.07s-3.33-.67-5-1.12c-.13 0-.16.12 0 .15 2.82.74 5.6 1.76 8.39 2.62s5.51 1.63 8.28 2.41c5.56 1.57 11.19 3 16.82 4.31 1.56.36 3.1.75 4.65 1.11.83.2 1.66.37 2.49.56s1.46.41 2.21.51a.1.1 0 00.04-.19zM191.36 210.64c.11-.24-.24-.44-.35-.2a53.21 53.21 0 00-3.93 32.89 72.1 72.1 0 002.37 8.3 18.12 18.12 0 011.05 4.87 31 31 0 01-.23 4.72l-2 19.68-4 39c-.34 3.25-.64 6.51-1.17 9.73a76.8 76.8 0 01-2.21 9.22C179 345 177 351.1 175 357.18c-4.07 12.29-8.52 24.44-12.76 36.66-.53 1.5-1.06 3-1.61 4.5 0 .09.11.13.15 0 4.71-12 9.28-24.05 13.44-36.27q3.12-9.15 6.05-18.36c.94-3 1.89-5.93 2.62-9a75.86 75.86 0 001.57-9.36c1.48-12.84 2.66-25.73 4-38.59l2-19.51c.33-3.17.82-6.38.87-9.57s-1-5.87-2-8.8a53.62 53.62 0 01.36-34.12c.49-1.35 1.06-2.76 1.67-4.12zM238.25 226.06a44.47 44.47 0 00-8 4.74c-2.65 1.81-5.09 3.91-7.64 5.86a.09.09 0 10.1.16c2.7-1.72 5.51-3.23 8.18-5a53 53 0 007.52-5.55c.05-.09-.04-.27-.16-.21z" fill="#263238"/><path d="M238.61 209.41c-.34 1.85-.79 3.67-1.19 5.5s-.65 3.47-1.1 5.17a8.79 8.79 0 01-2.41 4.34c-.67.62-1.41 1.18-2.13 1.75-.39.31-.81.61-1.21.92.05-.24.09-.49.14-.74.12-.7.24-1.4.35-2.1.27-1.55.51-3.1.75-4.66.47-3.06.9-6.15 1.54-9.17a.1.1 0 00-.19 0c-.77 3-1.61 6-2.27 9-.32 1.49-1.49 8.81-1.54 9.33s-.09 1.07-.11 1.61a6.43 6.43 0 000 1.64.13.13 0 00.25 0 6.76 6.76 0 00.47-1.59c.13-.52.25-1.06.34-1.59 0-.19.06-.39.09-.58.72-.44 1.39-1 2.07-1.51s1.47-1 2.15-1.62a8.16 8.16 0 002.63-4.11 30.08 30.08 0 00.87-5.26c.23-2.08.4-4.17.69-6.25.02-.15-.17-.2-.19-.08z" fill="#263238"/><path d="M215.71 142.39c5.93 6.22 36.38 35.67 49.68 32.93 16.11-3.33 34.82-13.13 42.13-20.1 4.09-3.91-15.66-23.64-19.77-20.6-6.5 4.81-22.13 12.8-24.88 13.9s-26-10.88-39.61-15.57c-12.26-4.23-11.72 5.05-7.55 9.44z" fill="#f7a9a0"/><path d="M318.66 146.36c-3.58 4.77-14.7 11.65-18 12.28s-15.65-17.9-14.55-21.18 14.4-18.41 20.28-19.92 15.97 23.89 12.27 28.82z" fill="#f7a9a0"/><path d="M287.89 134.48a49.36 49.36 0 001.67-14.27c-.37-5.73-1.56-14.19 1.51-14.51 6.31-.64 9.29 20.47 9.29 20.47s-.18 9.53-6.38 10.72a6.27 6.27 0 01-6.09-2.41z" fill="#f7a9a0"/><path d="M297.77 121.69c-.31 3.14 3.57 1.71 3.57 1.71s-5.09 3.4-4.16 6.77 5.53 1.35 5.86 1.22c-.27.18-4.86 3.43-3.58 6.71s5.65.72 5.93.54c-.2.26-2.77 3.63-1.23 5.9 2.64 3.91 9.46-4.53 13.28-4.77 0 0 1.15 6.41 1.22 6.59 0 0 6.65-7.89 6-13a3.29 3.29 0 00-2.9-2.94s2.42-2.31 1.5-4.92c-.48-1.34-3.06-1.77-3.06-1.77a4.13 4.13 0 00.9-4.21c-.77-1.82-3.23-2-3.23-2s.93-2.69-.46-4.29c-2.76-3.23-18.96 1.77-19.64 8.46z" fill="#f7a9a0"/><path d="M317.51 117.46v-.09a29.36 29.36 0 00-16.38 6.09c-.14.12 0 .41.17.31a60.26 60.26 0 0116.21-6.31zM320.3 123.66c.07 0 .05-.12 0-.12a27.51 27.51 0 00-17.46 7.75c-.16.17-.14.47.06.3 3.32-2.96 12.1-6.78 17.4-7.93zM305.18 139.09c4.64-4.43 10.24-6.94 16.36-8.68.08 0 0-.13 0-.13-3.23 0-7 1.55-9.86 3a17 17 0 00-6.63 5.67c-.05.05.03.24.13.14z" fill="#263238"/><path d="M301.24 123.38c-.18.14.23.24.05.39-.72.62-4.73 4.77-3.74 6.58.8 1.44 3.29 1.38 4.24 1l2.38-1-1.89 1.78a10.61 10.61 0 00-2.1 2.71 3.77 3.77 0 00-.42 3.07 2.17 2.17 0 002.26 1.52 6.55 6.55 0 003.07-1.16l2.56-1.69-1.86 2.42a10.21 10.21 0 00-1.28 2.19 4.17 4.17 0 00-.36 2.34 2 2 0 001.39 1.52 4.38 4.38 0 002.39-.38 33.86 33.86 0 004.65-2.58c.76-.46 1.53-.93 2.32-1.37a6.52 6.52 0 012.54-.91 6.83 6.83 0 00-2.44 1.09c-.75.48-1.47 1-2.2 1.53a29.38 29.38 0 01-4.62 2.88 5 5 0 01-2.84.55 2.76 2.76 0 01-2.13-2.16 5 5 0 01.35-2.91 10.71 10.71 0 011.4-2.46l.7.73a7.62 7.62 0 01-3.61 1.41 3.19 3.19 0 01-2.05-.55 3.52 3.52 0 01-1.24-1.7 4.79 4.79 0 01.52-3.88 11.23 11.23 0 012.37-2.94l.49.76c-1.22.47-4 .85-5.52-1.23-1.54-3.02 3.62-6.93 4.62-7.55z" fill="#263238"/><path d="M301.34 123.4a6.32 6.32 0 01-1.94 0 1.44 1.44 0 01-1.17-.9 2.94 2.94 0 01.07-1.7c.17-.61.39-1.24.64-1.89a5.23 5.23 0 00-1.29 1.65 3 3 0 00-.25 2.25 2 2 0 00.79 1 2.24 2.24 0 001.15.31 3.39 3.39 0 002-.72z" fill="#263238"/><path d="M283 136.68l22.88 25.85s-34 16.63-45 14.09S227 156.84 217 144.53s-4-15.73 10-11.12 33.55 13.59 35.55 13.49S283 136.68 283 136.68z" fill="#ffbd3b"/><path d="M245.09 157.4a2.5 2.5 0 011.34-.07 1.27 1.27 0 01.82 1.18 1 1 0 00.46.86 1.11 1.11 0 00.53.17l.64.12a2.25 2.25 0 01-1.34.05 1.29 1.29 0 01-.79-1.19 1 1 0 00-.48-.84 1.14 1.14 0 00-.54-.16c-.21-.04-.43-.06-.64-.12zM276.2 151.06a2.61 2.61 0 011.34-.07 1.27 1.27 0 01.82 1.18 1 1 0 00.46.86 1.15 1.15 0 00.53.17c.21 0 .43.07.64.12a2.17 2.17 0 01-1.34.05 1.27 1.27 0 01-.78-1.19 1 1 0 00-.49-.84 1 1 0 00-.54-.15c-.21-.05-.42-.07-.64-.13zM298.47 160.46a2.47 2.47 0 011.33-.07 1.3 1.3 0 01.83 1.18 1 1 0 00.46.86 1.07 1.07 0 00.52.17c.22 0 .43.07.64.12a2.25 2.25 0 01-1.34.05 1.27 1.27 0 01-.78-1.19 1 1 0 00-.49-.84 1.14 1.14 0 00-.54-.16c-.21-.04-.42-.06-.63-.12zM256.83 164.21a2.47 2.47 0 011.33-.07 1.28 1.28 0 01.83 1.18 1 1 0 00.46.86 1.07 1.07 0 00.53.17l.63.12a2.25 2.25 0 01-1.34.05 1.27 1.27 0 01-.78-1.19 1 1 0 00-.49-.84 1.14 1.14 0 00-.54-.16c-.21-.04-.46-.06-.63-.12zM230.78 135.64a2.47 2.47 0 011.33-.07 1.26 1.26 0 01.83 1.17 1 1 0 00.46.87 1.07 1.07 0 00.53.17c.21 0 .42.06.63.12a2.29 2.29 0 01-1.33 0 1.3 1.3 0 01-.79-1.2 1 1 0 00-.49-.83 1.08 1.08 0 00-.54-.16c-.21.01-.41-.02-.63-.07zM283.51 165.34a2.47 2.47 0 01-.89 1 1.27 1.27 0 01-1.42-.24 1 1 0 00-.93-.29 1.15 1.15 0 00-.5.26c-.18.12-.34.25-.53.36.24-.35.42-.77.91-1a1.29 1.29 0 011.4.29 1 1 0 00.93.25 1.15 1.15 0 00.5-.28c.17-.11.34-.24.53-.35zM258.54 153.13a2.53 2.53 0 01-.89 1 1.29 1.29 0 01-1.42-.24 1 1 0 00-.94-.29 1 1 0 00-.49.25 6.33 6.33 0 01-.54.36c.25-.34.43-.76.91-1a1.3 1.3 0 011.41.29 1 1 0 00.93.24 1.14 1.14 0 00.49-.27c.18-.1.35-.23.54-.34zM269.77 158.68a2.47 2.47 0 01-.89 1 1.27 1.27 0 01-1.42-.24 1 1 0 00-.93-.29 1.15 1.15 0 00-.5.26c-.18.12-.34.25-.53.36.24-.35.42-.77.91-1a1.29 1.29 0 011.4.29 1 1 0 00.94.24 1 1 0 00.49-.27c.18-.11.34-.24.53-.35zM286.59 141.43a2.53 2.53 0 01-.89 1 1.28 1.28 0 01-1.42-.25 1 1 0 00-.93-.28 1 1 0 00-.5.25c-.18.12-.34.25-.53.36a2.3 2.3 0 01.91-1 1.29 1.29 0 011.4.29 1 1 0 00.93.25 1.12 1.12 0 00.5-.27c.17-.11.34-.24.53-.35zM221.85 140.09a2.47 2.47 0 01.07 1.33 1.26 1.26 0 01-1.17.83 1 1 0 00-.86.46.91.91 0 00-.17.53c-.05.21-.07.42-.13.63a2.29 2.29 0 01-.05-1.33 1.3 1.3 0 011.2-.79 1 1 0 00.84-.49 1.08 1.08 0 00.15-.54c.04-.21.07-.42.12-.63zM290.29 156.27a2.47 2.47 0 01.07 1.33 1.27 1.27 0 01-1.17.83 1 1 0 00-.86.46 1 1 0 00-.18.53c0 .21-.06.42-.12.63a2.29 2.29 0 010-1.33 1.29 1.29 0 011.2-.79 1 1 0 00.84-.49 1.14 1.14 0 00.15-.54c-.01-.21.02-.42.07-.63zM271.23 168.82a2.47 2.47 0 01.07 1.33 1.27 1.27 0 01-1.17.83 1 1 0 00-.87.46 1.07 1.07 0 00-.17.53c0 .21-.06.42-.12.63a2.33 2.33 0 01-.05-1.34 1.29 1.29 0 011.2-.78 1 1 0 00.88-.48 1.14 1.14 0 00.16-.54c-.01-.22.02-.46.07-.64zM267.9 146.62a2.47 2.47 0 01.1 1.38 1.28 1.28 0 01-1.18.83 1 1 0 00-.86.46 1.07 1.07 0 00-.17.53c0 .21-.06.42-.12.63a2.29 2.29 0 01-.05-1.33 1.28 1.28 0 011.2-.79 1 1 0 00.83-.49 1.11 1.11 0 00.16-.54c.01-.3.03-.47.09-.68zM235.81 162.18l-.2-.16c0-.14 0-.29.08-.43.03.2.09.41.12.59zM245.16 144.47a2.47 2.47 0 01.07 1.33 1.27 1.27 0 01-1.18.83 1 1 0 00-.86.46 1.11 1.11 0 00-.17.53c0 .21-.07.42-.12.63a2.21 2.21 0 01-.05-1.33 1.28 1.28 0 011.19-.79 1 1 0 00.84-.49 1.07 1.07 0 00.16-.53c.04-.22.06-.43.12-.64zM230.29 149.62a2.47 2.47 0 01.89-1 1.27 1.27 0 011.42.24 1 1 0 00.93.29 1.15 1.15 0 00.5-.26c.18-.12.34-.25.53-.36-.24.35-.42.77-.91 1a1.29 1.29 0 01-1.4-.29 1 1 0 00-.94-.25 1.17 1.17 0 00-.49.28c-.18.11-.34.24-.53.35zM184 225.41a2.47 2.47 0 01.89-1 1.27 1.27 0 011.42.24 1 1 0 00.93.29 1.15 1.15 0 00.5-.26c.18-.12.34-.25.53-.36-.24.35-.42.77-.91 1a1.29 1.29 0 01-1.4-.29 1 1 0 00-.94-.24 1 1 0 00-.49.27c-.22.11-.38.24-.53.35z" fill="#fff"/><path d="M299 165.57c-1.18-1.71-2.7-3.24-4-4.83s-2.83-3.23-4.28-4.82c-2.8-3.09-5.71-6.1-8.61-9.1-1.7-1.74-3.46-3.41-5.17-5.14-.06-.06-.17 0-.11.11 2.77 3.22 5.5 6.47 8.34 9.63s5.63 6.17 8.55 9.16c.84.85 1.7 1.68 2.55 2.52a33.94 33.94 0 002.65 2.58.08.08 0 00.08-.11zM275.22 174.77c-5.8 1.68-11.07 2.6-14.34 1.85-11.06-2.54-33.91-19.78-43.9-32.09-7.07-8.72-6.12-13 0-13.09 13.9 10.03 41.89 31.02 58.24 43.33z" fill="#263238"/><path d="M242.48 181l4.75 32.68s-53.26.78-66.48-.15c0 0 10.78-61.09 25-76.53 7.11-7.72 15.46-7.14 20.78-1.75 1.35 1.37 17.41 22.6 19.1 30.71 1.48 7.13-3.15 15.04-3.15 15.04z" fill="#ffbd3b"/><path d="M218.83 155.14a2.5 2.5 0 011.34-.07 1.27 1.27 0 01.82 1.17 1 1 0 00.46.87 1.11 1.11 0 00.53.17c.21 0 .42.06.64.12a2.33 2.33 0 01-1.34 0 1.31 1.31 0 01-.79-1.2 1 1 0 00-.48-.83 1.14 1.14 0 00-.54-.16c-.21.01-.47-.01-.64-.07zM230.53 197a2.57 2.57 0 011.33-.07 1.28 1.28 0 01.83 1.18 1 1 0 001 1c.21 0 .42.07.63.13a2.29 2.29 0 01-1.33.05 1.3 1.3 0 01-.79-1.2 1 1 0 00-.49-.84 1.07 1.07 0 00-.53-.15c-.18-.03-.44-.1-.65-.1zM207.87 136.12a2.47 2.47 0 011.33-.07 1.28 1.28 0 01.83 1.17 1 1 0 00.46.87 1.07 1.07 0 00.52.17c.22 0 .43.06.64.12a2.33 2.33 0 01-1.34.05 1.29 1.29 0 01-.78-1.2 1 1 0 00-.49-.83 1.14 1.14 0 00-.54-.16zM202.24 172.65a2.47 2.47 0 011.33-.07 1.26 1.26 0 01.83 1.17 1 1 0 00.46.87 1.11 1.11 0 00.53.17c.21 0 .42.06.63.12a2.29 2.29 0 01-1.33.05 1.3 1.3 0 01-.79-1.2 1 1 0 00-.49-.83 1.08 1.08 0 00-.54-.16zM227 210.62a2.51 2.51 0 011.34-.07 1.28 1.28 0 01.83 1.17 1 1 0 00.46.87 1.07 1.07 0 00.52.17c.21 0 .43.06.64.12a2.33 2.33 0 01-1.34.05 1.29 1.29 0 01-.78-1.2 1 1 0 00-.49-.83 1.14 1.14 0 00-.54-.16zM214.93 190.39a2.47 2.47 0 011.33-.07 1.28 1.28 0 01.83 1.17 1.05 1.05 0 001 1c.22 0 .43.06.64.12a2.33 2.33 0 01-1.34 0 1.29 1.29 0 01-.78-1.2 1 1 0 00-.49-.84 1.27 1.27 0 00-.54-.15c-.23.05-.44.02-.65-.03zM192.17 194.13a2.47 2.47 0 011.33-.07 1.3 1.3 0 01.83 1.18 1 1 0 00.46.86 1.07 1.07 0 00.52.17c.22 0 .43.07.64.12a2.25 2.25 0 01-1.34.05 1.27 1.27 0 01-.78-1.19 1 1 0 00-.49-.84 1.14 1.14 0 00-.54-.16c-.21-.04-.42-.06-.63-.12zM225.4 173.15a2.5 2.5 0 011.34-.07 1.27 1.27 0 01.82 1.18 1 1 0 00.46.86 1.11 1.11 0 00.53.17l.64.12a2.25 2.25 0 01-1.34.05 1.29 1.29 0 01-.79-1.19 1 1 0 00-.48-.84 1.14 1.14 0 00-.54-.16c-.21-.04-.43-.06-.64-.12zM211.24 148.56a2.53 2.53 0 01-.89 1 1.29 1.29 0 01-1.42-.24 1 1 0 00-.93-.32 1.12 1.12 0 00-.5.25c-.18.12-.34.26-.53.37.24-.35.42-.77.91-1a1.29 1.29 0 011.4.29 1 1 0 00.93.24 1.08 1.08 0 00.5-.27c.17-.08.34-.21.53-.32zM244 172.61a2.56 2.56 0 01-.89 1 1.29 1.29 0 01-1.42-.25 1 1 0 00-.94-.28 1 1 0 00-.49.25c-.18.12-.34.25-.53.36.24-.34.42-.77.9-1a1.3 1.3 0 011.41.29 1 1 0 00.93.25 1.14 1.14 0 00.49-.27c.21-.1.38-.24.54-.35zM221.85 140.09a2.47 2.47 0 01.07 1.33 1.26 1.26 0 01-1.17.83 1 1 0 00-.86.46.91.91 0 00-.17.53c-.05.21-.07.42-.13.63a2.29 2.29 0 01-.05-1.33 1.3 1.3 0 011.2-.79 1 1 0 00.84-.49 1.08 1.08 0 00.15-.54c.04-.21.07-.42.12-.63zM216.82 177.28a2.57 2.57 0 01.07 1.33 1.3 1.3 0 01-1.18.83 1 1 0 00-.86.46 1.07 1.07 0 00-.17.52c0 .22-.07.43-.12.64a2.17 2.17 0 01-.05-1.34 1.27 1.27 0 011.19-.78 1 1 0 00.84-.49 1.14 1.14 0 00.16-.54c.04-.21.06-.42.12-.63zM243 204.94a2.5 2.5 0 01.07 1.34 1.26 1.26 0 01-1.17.82 1 1 0 00-.86.46 1 1 0 00-.18.53c0 .21-.06.43-.12.64a2.33 2.33 0 010-1.34 1.29 1.29 0 011.2-.78 1 1 0 00.84-.49 1.27 1.27 0 00.15-.54c.01-.21.07-.42.07-.64zM196.32 178.61a2.47 2.47 0 01.07 1.33 1.3 1.3 0 01-1.18.83 1 1 0 00-.86.46 1.07 1.07 0 00-.17.52c0 .22-.07.43-.12.64a2.25 2.25 0 01-.05-1.34 1.27 1.27 0 011.19-.78 1 1 0 00.84-.49 1.14 1.14 0 00.16-.54c.04-.24.06-.42.12-.63zM206.35 157.08a2.5 2.5 0 01.07 1.34 1.26 1.26 0 01-1.17.82 1.06 1.06 0 00-.87.46 1.11 1.11 0 00-.17.53c0 .21-.06.42-.12.64a2.33 2.33 0 01-.05-1.34 1.32 1.32 0 011.2-.79 1 1 0 00.83-.48 1.14 1.14 0 00.16-.54c.04-.21.07-.43.12-.64zM235.69 161.59a2.47 2.47 0 01.07 1.33 1.26 1.26 0 01-1.17.83 1.05 1.05 0 00-1 1c0 .21-.06.42-.12.63a2.29 2.29 0 01-.05-1.33 1.3 1.3 0 011.2-.79 1 1 0 00.83-.49 1.08 1.08 0 00.16-.54c0-.23.03-.43.08-.64zM208.58 199.25a2.57 2.57 0 01.07 1.33 1.31 1.31 0 01-1.18.83 1 1 0 00-.86.46 1 1 0 00-.17.52c0 .22-.07.43-.13.64a2.33 2.33 0 01-.05-1.34 1.29 1.29 0 011.2-.78 1 1 0 00.84-.49 1.14 1.14 0 00.15-.54c.04-.21.07-.42.13-.63zM199 204.94a2.5 2.5 0 01.07 1.34 1.27 1.27 0 01-1.18.82 1 1 0 00-.86.46 1.15 1.15 0 00-.17.53c0 .21-.07.43-.12.64a2.25 2.25 0 01-.05-1.34 1.27 1.27 0 011.19-.78 1 1 0 00.84-.49 1.14 1.14 0 00.16-.54c.01-.21.03-.42.12-.64zM184.82 201.93a1.27 1.27 0 01-1.17.83 1 1 0 00-.86.46.56.56 0 000 .08c0-.27.11-.54.17-.82a1.23 1.23 0 01.73-.22 1 1 0 00.84-.49 1.14 1.14 0 00.15-.54c0-.21.07-.42.12-.63a2.47 2.47 0 01.02 1.33zM230.29 149.62a2.47 2.47 0 01.89-1 1.27 1.27 0 011.42.24 1 1 0 00.93.29 1.15 1.15 0 00.5-.26c.18-.12.34-.25.53-.36-.24.35-.42.77-.91 1a1.29 1.29 0 01-1.4-.29 1 1 0 00-.94-.25 1.17 1.17 0 00-.49.28c-.18.11-.34.24-.53.35zM213.55 166.45a2.47 2.47 0 01.89-1 1.27 1.27 0 011.42.24 1 1 0 00.93.29 1.15 1.15 0 00.5-.26c.18-.12.34-.25.53-.36-.24.35-.42.77-.91 1a1.29 1.29 0 01-1.4-.29 1 1 0 00-.93-.24 1 1 0 00-.5.27c-.17.11-.34.24-.53.35zM202 189.29c.25-.35.42-.76.9-1a1.26 1.26 0 011.41.24 1.05 1.05 0 00.94.29 1.07 1.07 0 00.49-.26c.18-.12.35-.25.54-.36-.25.35-.42.77-.91 1a1.28 1.28 0 01-1.4-.29 1 1 0 00-.94-.25 1.07 1.07 0 00-.49.28c-.23.11-.4.24-.54.35zM207 213a2.4 2.4 0 01.89-1 1.27 1.27 0 011.42.24 1 1 0 00.93.29 1.24 1.24 0 00.5-.25c.17-.12.34-.26.53-.37-.24.35-.42.77-.91 1a1.28 1.28 0 01-1.4-.29 1 1 0 00-.94-.24 1 1 0 00-.49.27c-.21.13-.37.26-.53.35zM187.52 187.66a2.3 2.3 0 01-.91 1 1 1 0 01-.62.08c0-.15.08-.3.11-.45a.86.86 0 00.39 0 1 1 0 00.5-.25c.18-.14.34-.27.53-.38zM229.4 186.94c.25-.35.42-.76.9-1a1.27 1.27 0 011.41.24 1 1 0 00.94.29 1.15 1.15 0 00.49-.25c.18-.12.35-.26.54-.37-.25.35-.42.77-.91 1a1.28 1.28 0 01-1.4-.29 1 1 0 00-.94-.24 1 1 0 00-.49.27c-.18.11-.35.24-.54.35zM218.87 203.57a2.56 2.56 0 01.89-1 1.29 1.29 0 011.42.25 1 1 0 00.93.29 1.15 1.15 0 00.5-.26c.18-.12.34-.25.53-.36-.24.34-.42.77-.91 1a1.29 1.29 0 01-1.4-.29 1 1 0 00-.93-.25 1.12 1.12 0 00-.5.27c-.17.1-.34.24-.53.35zM183.25 212.85a2.6 2.6 0 01.89-1 1.28 1.28 0 011.42.25 1 1 0 00.93.28 1 1 0 00.5-.25c.18-.12.34-.25.53-.36a2.3 2.3 0 01-.91 1 1.29 1.29 0 01-1.4-.29 1 1 0 00-.93-.25 1.24 1.24 0 00-.5.27c-.17.11-.34.24-.53.35zM193.05 167a2.56 2.56 0 01.89-1 1.29 1.29 0 011.42.25 1 1 0 00.94.29 1.12 1.12 0 00.49-.26c.18-.12.34-.25.53-.36-.24.35-.42.77-.91 1a1.29 1.29 0 01-1.4-.29 1 1 0 00-.93-.25 1.14 1.14 0 00-.49.27 6.45 6.45 0 01-.54.35z" fill="#fff"/><path d="M212.87 134.32c.37 1 4.77 5 9.36 3.66 2.21-.67 2-6.12 2-6.12l.06-.64.82-9L214 117l-1.6-.68s-.06 2.48-.11 5.56v4.54a56.2 56.2 0 00.58 7.9z" fill="#f7a9a0"/><path d="M212.24 121.84a18.15 18.15 0 0012 9.38l.82-9L214 117l-1.6-.68s-.11 2.44-.16 5.52z" fill="#263238"/><path d="M236.52 109c1.26 15.81-8.07 18.35-11.48 18.62-3.09.24-13.66.67-16.55-14.92s4.07-21.17 11.12-22.1 15.65 2.56 16.91 18.4z" fill="#f7a9a0"/><path d="M233.85 105.6a9.63 9.63 0 01-1.07-.21 1.8 1.8 0 01-1.05-.43.56.56 0 010-.69 1.41 1.41 0 011.38-.34 2 2 0 011.29.72.6.6 0 01-.55.95zM223.49 106.16a9.73 9.73 0 001.07-.24 1.7 1.7 0 001-.45.56.56 0 000-.69 1.41 1.41 0 00-1.38-.31 2.08 2.08 0 00-1.29.74.6.6 0 00.6.95zM226 110.14s-.09.06-.08.1c.07 1.08 0 2.33-1 2.72v.06c1.17-.21 1.29-1.87 1.08-2.88z" fill="#263238"/><path d="M225 109.05c-1.74-.08-1.77 3.41-.15 3.48s1.57-3.42.15-3.48z" fill="#263238"/><path d="M224.28 109.23c-.3.19-.61.54-1 .57s-.75-.32-1-.68h-.06c0 .67.24 1.36 1 1.46s1.13-.49 1.3-1.16c-.01-.09-.12-.27-.24-.19zM231.8 109.58s.08 0 .08.09c0 1.08.08 2.33 1.05 2.7v.06c-1.2-.19-1.35-1.84-1.13-2.85z" fill="#263238"/><path d="M232.78 108.46c1.74-.11 1.82 3.38.21 3.48s-1.67-3.39-.21-3.48z" fill="#263238"/><path d="M233.51 108.67c.28.18.56.51.89.52s.66-.37.89-.73h.06c0 .67-.17 1.37-.81 1.51s-1-.43-1.2-1.09c-.03-.09.06-.28.17-.21zM225.73 118.36c.24.26.48.63.87.68a3 3 0 001.18-.21 1.46 1.46 0 01-1.4.52 1.17 1.17 0 01-.8-1c.03-.01.11-.03.15.01zM230.22 114.43s.23 1.61.24 2.37c0 .07-.19.11-.45.13a3.62 3.62 0 01-3.51-1.33.08.08 0 01.11-.11 5.48 5.48 0 003.31.93c.05-.21-.49-2.75-.37-2.76a6.69 6.69 0 011.73.38c-.39-3.37-1.31-6.65-1.65-10 0-.12.17-.16.2 0a55.14 55.14 0 012.17 10.65c.09.43-1.47-.13-1.78-.26z" fill="#263238"/><path d="M209 111.53c1.71-.11 6.18-4.83 6.31-13.11 0 0-.63 7.43-1.19 8.52s2.49-2.66 2.69-9.34a27.36 27.36 0 006.86 3.56c3.15.88 5.08.85 5.31.62s-4.42-1.69-5.67-3.14c0 0 8.39 3.9 12.26 4.2.44 0 1-9.17-5-13.07s-15.45.31-18 2.78c0 0-3 .42-6.24 4.85s.77 14.24 2.67 14.13z" fill="#263238"/><path d="M216.9 125.07c-2.73-1-5.49-2.09-7.4-4.45a13.87 13.87 0 01-3-5.77 11.07 11.07 0 001.2 2.38 7.63 7.63 0 001.91 2 14.81 14.81 0 007.38 5.41c.26.07.18.53-.09.43zM213.32 115.19c-.52-.55-2.22-3.44-3.62-4.46-.22-.18-.44-.36-.67-.52a3.21 3.21 0 00-1.26-.54 1.92 1.92 0 011.14-.19c2 .21 3.72 4.12 4.58 5.58.05.08-.08.23-.17.13z" fill="#ebebeb"/><path d="M212.82 114.54c-.39-.72 5.23 1.44 10.77-.18 1.14-.33 4.25-1.89 6-2s4 1.14 6.5 1.21c.85 0 .72 7.4-1.18 10.78-.63 1.11-3.48 3.52-5.32 3.86-4.31.8-12-1.7-13.26-3-.97-1.21.28-3.82-3.51-10.67z" fill="#ebebeb"/><path d="M235.67 115.18a17 17 0 00-5.42-1.19 19.56 19.56 0 00-4.36 1.34 18.47 18.47 0 01-10.42.76s-.05.07 0 .08a15.08 15.08 0 009.46-.15c1.66-.53 3.63-1.56 5.39-1.59a24.08 24.08 0 015.34.92c.15.03.17-.12.01-.17zM233.61 123.87a30.64 30.64 0 01-3.4 2.08c-1.42.59-3.18.25-4.65 0a82.82 82.82 0 01-8.22-2 35.8 35.8 0 009.47 2.48 7.39 7.39 0 003.31-.13 15.52 15.52 0 003.53-2.4s0-.05-.04-.03zM234.94 117.72a19 19 0 00-8.18.42 33 33 0 01-9.61.61 27.74 27.74 0 008.58-.25c1.37-.25 2.73-.63 4.11-.84a16 16 0 015.07.19c.09.07.09-.11.03-.13z" fill="#dbdbdb"/><path d="M234.52 120.58a13.81 13.81 0 01-8 2.44 37.52 37.52 0 01-8.52-1.62v.07c5.71 1.88 11.43 3 16.65-.73.06-.07-.03-.23-.13-.16z" fill="#dbdbdb"/><path d="M212.3 113.82s-3.18-5.14-5.49-4-.11 8.41 2.46 9.54a2.68 2.68 0 003.67-1.24z" fill="#f7a9a0"/><path d="M207.49 111.87s-.05 0 0 .07c1.8.85 2.67 2.61 3.26 4.43a1.48 1.48 0 00-2.19-.53c-.05 0 0 .11 0 .1a1.64 1.64 0 011.78.68 7.48 7.48 0 01.79 1.51c.07.17.38.1.32-.09V118c.2-2.36-1.45-5.76-3.96-6.13z" fill="#263238"/><path d="M211.49 119.08a1.16 1.16 0 11-1.1-1.21 1.15 1.15 0 011.1 1.21z" fill="#fff"/><path d="M164.85 259.11c-1.95 4.63-.68 12.33-4.4 11.95-3.3-.33-3.66-5.74-3.66-5.74s-1.57 6.23-5 4.86-2.64-7.38-2.64-7.38-1.07 5.25-4.42 3.63-3.59-6.85-3.59-6.85-1.34 1.29-3.19-.91c-2.66-3.15-.84-11.88 1.18-16.2s12.65-18.69 14.32-20.85l27.9 12.77s0 9.36-.66 14.1-6.94 19.82-10.79 18.5.81-11.88 1.39-14.72 0-3.45-1.24-2.38c-.85.71-4.34 7.18-5.2 9.22z" fill="#f7a9a0"/><path d="M156.9 265.06c0-7.59 1.36-10.9 5.38-17.19.08-.12-.09-.27-.18-.15-4.49 5.81-6.76 9.72-5.57 17.35.06.38.37.35.37-.01zM149.2 263.12c.73-7.87 2.13-11.48 5.85-18.38.06-.09-.1-.19-.16-.1-4.22 6.46-6.39 10.42-6.08 18.38.01.36.36.46.39.1zM141.18 259.5c1.26-7.57 2.63-11.59 7.1-17.82a.14.14 0 00-.22-.18c-5.18 5.92-6.93 10.92-7.1 17.94-.02.48.14.56.22.06z" fill="#263238"/><path d="M203.46 139.46c-20.71 22.79-47.07 75.29-50.77 83.42-2.52 5.52 26.35 19.44 27.49 15.44 1.47-5.13 25.36-66 31.56-89.84 3.42-13.15-1.09-16.93-8.28-9.02z" fill="#f7a9a0"/><path d="M184.9 229.58c.13.06.21-.14.08-.21M155.05 213.86c-.12-.07-.21.13-.08.18" fill="#263238"/><path d="M153.64 217.22l35.43 14.12s18.37-59.1 22.75-80.42-2-20-13.08-7.61-45.1 73.91-45.1 73.91z" fill="#ffbd3b"/><path d="M207.87 136.12a2.47 2.47 0 011.33-.07 1.28 1.28 0 01.83 1.17 1 1 0 00.46.87 1.07 1.07 0 00.52.17c.22 0 .43.06.64.12a2.33 2.33 0 01-1.34.05 1.29 1.29 0 01-.78-1.2 1 1 0 00-.49-.83 1.14 1.14 0 00-.54-.16zM205.76 174.85v.12a1.76 1.76 0 01-1 0 1.3 1.3 0 01-.79-1.2 1 1 0 00-.49-.83 1.08 1.08 0 00-.54-.16l-.63-.12a2.47 2.47 0 011.33-.07 1.26 1.26 0 01.83 1.17 1 1 0 00.46.87 1.11 1.11 0 00.53.17zM174.1 218.13a2.47 2.47 0 011.33-.07 1.3 1.3 0 01.83 1.18 1 1 0 00.46.86 1.07 1.07 0 00.52.17c.22 0 .43.07.64.12a2.25 2.25 0 01-1.34.05 1.27 1.27 0 01-.78-1.19 1 1 0 00-.49-.84 1.14 1.14 0 00-.54-.16c-.21-.04-.42-.06-.63-.12zM190.27 155.14a2.5 2.5 0 011.34-.07 1.27 1.27 0 01.82 1.17 1.05 1.05 0 00.46.87 1.15 1.15 0 00.53.17c.21 0 .43.06.64.12a2.33 2.33 0 01-1.34 0 1.28 1.28 0 01-.78-1.2 1 1 0 00-.49-.83 1.14 1.14 0 00-.54-.16c-.21.01-.42-.01-.64-.07zM192.17 194.13a2.47 2.47 0 011.33-.07 1.3 1.3 0 01.83 1.18 1 1 0 00.46.86 1.07 1.07 0 00.52.17c.22 0 .43.07.64.12a2.25 2.25 0 01-1.34.05 1.27 1.27 0 01-.78-1.19 1 1 0 00-.49-.84 1.14 1.14 0 00-.54-.16c-.21-.04-.42-.06-.63-.12zM185.63 172.65a2.5 2.5 0 011.34-.07 1.26 1.26 0 01.82 1.17 1.06 1.06 0 00.46.87 1.11 1.11 0 00.53.17c.21 0 .42.06.64.12a2.33 2.33 0 01-1.34.05 1.32 1.32 0 01-.79-1.2 1 1 0 00-.48-.83 1.14 1.14 0 00-.54-.16c-.21-.04-.43-.07-.64-.12zM174.1 192.86a2.47 2.47 0 011.33-.07 1.3 1.3 0 01.83 1.18 1 1 0 00.46.86 1.07 1.07 0 00.52.17c.22 0 .43.06.64.12a2.33 2.33 0 01-1.34 0 1.28 1.28 0 01-.78-1.2 1 1 0 00-.49-.83 1.14 1.14 0 00-.54-.16c-.21.01-.42-.01-.63-.07zM211.24 148.56a2.53 2.53 0 01-.89 1 1.29 1.29 0 01-1.42-.24 1 1 0 00-.93-.32 1.12 1.12 0 00-.5.25c-.18.12-.34.26-.53.37.24-.35.42-.77.91-1a1.29 1.29 0 011.4.29 1 1 0 00.93.24 1.08 1.08 0 00.5-.27c.17-.08.34-.21.53-.32zM174.12 207.49c-.25.35-.42.76-.9 1a1.26 1.26 0 01-1.41-.24 1 1 0 00-.94-.29 1.07 1.07 0 00-.49.26c-.18.12-.35.25-.54.36.25-.35.42-.77.91-1a1.28 1.28 0 011.4.29 1 1 0 00.94.24 1 1 0 00.49-.27c.18-.11.35-.24.54-.35zM179.94 177.28a2.47 2.47 0 01.07 1.33 1.3 1.3 0 01-1.18.83 1 1 0 00-.86.46 1.07 1.07 0 00-.17.52c0 .22-.07.43-.12.64a2.25 2.25 0 01-.05-1.34 1.27 1.27 0 011.19-.78 1 1 0 00.84-.49 1.14 1.14 0 00.16-.54c.04-.21.06-.42.12-.63zM196.32 178.61a2.47 2.47 0 01.07 1.33 1.3 1.3 0 01-1.18.83 1 1 0 00-.86.46 1.07 1.07 0 00-.17.52c0 .22-.07.43-.12.64a2.25 2.25 0 01-.05-1.34 1.27 1.27 0 011.19-.78 1 1 0 00.84-.49 1.14 1.14 0 00.16-.54c.04-.24.06-.42.12-.63zM162.16 212.4a2.57 2.57 0 01.07 1.33 1.28 1.28 0 01-1.18.83 1 1 0 00-.86.46 1.07 1.07 0 00-.17.53c0 .21-.07.42-.12.63a2.17 2.17 0 01-.05-1.34 1.27 1.27 0 011.19-.78 1 1 0 00.84-.49 1 1 0 00.12-.57c.08-.18.1-.39.16-.6zM167.84 198.11a2.5 2.5 0 01.07 1.34 1.27 1.27 0 01-1.18.82 1 1 0 00-.86.46 1.11 1.11 0 00-.17.53c0 .21-.07.43-.12.64a2.25 2.25 0 01-.05-1.34 1.29 1.29 0 011.19-.79 1 1 0 00.84-.48 1.14 1.14 0 00.16-.54c.04-.21.06-.43.12-.64zM199.45 144.24a2.47 2.47 0 01.07 1.33 1.28 1.28 0 01-1.18.83 1 1 0 00-.86.46 1.07 1.07 0 00-.17.53c0 .21-.07.42-.12.63a2.21 2.21 0 01-.05-1.33 1.28 1.28 0 011.19-.79 1 1 0 00.84-.49 1.08 1.08 0 00.16-.54c.04-.21.06-.42.12-.63zM206.35 157.08a2.5 2.5 0 01.07 1.34 1.26 1.26 0 01-1.17.82 1.06 1.06 0 00-.87.46 1.11 1.11 0 00-.17.53c0 .21-.06.42-.12.64a2.33 2.33 0 01-.05-1.34 1.32 1.32 0 011.2-.79 1 1 0 00.83-.48 1.14 1.14 0 00.16-.54c.04-.21.07-.43.12-.64zM184.75 200.6a2.47 2.47 0 01.07 1.33 1.27 1.27 0 01-1.17.83 1 1 0 00-.86.46.91.91 0 00-.17.53c-.05.21-.07.42-.13.63a2.32 2.32 0 01-.05-1.34 1.29 1.29 0 011.2-.78 1 1 0 00.84-.49 1.14 1.14 0 00.15-.54c.04-.23.07-.42.12-.63zM183.25 188.73a2.6 2.6 0 01.89-1 1.28 1.28 0 011.42.25 1 1 0 00.93.28 1 1 0 00.5-.25c.18-.12.34-.25.53-.36a2.3 2.3 0 01-.91 1 1.29 1.29 0 01-1.4-.29 1 1 0 00-.93-.25 1.24 1.24 0 00-.5.27c-.17.11-.34.24-.53.35zM183.25 212.85a2.6 2.6 0 01.89-1 1.28 1.28 0 011.42.25 1 1 0 00.93.28 1 1 0 00.5-.25c.18-.12.34-.25.53-.36a2.3 2.3 0 01-.91 1 1.29 1.29 0 01-1.4-.29 1 1 0 00-.93-.25 1.24 1.24 0 00-.5.27c-.17.11-.34.24-.53.35zM184 225.41a2.47 2.47 0 01.89-1 1.27 1.27 0 011.42.24 1 1 0 00.93.29 1.15 1.15 0 00.5-.26c.18-.12.34-.25.53-.36-.24.35-.42.77-.91 1a1.29 1.29 0 01-1.4-.29 1 1 0 00-.94-.24 1 1 0 00-.49.27c-.22.11-.38.24-.53.35zM193.05 167a2.56 2.56 0 01.89-1 1.29 1.29 0 011.42.25 1 1 0 00.94.29 1.12 1.12 0 00.49-.26c.18-.12.34-.25.53-.36-.24.35-.42.77-.91 1a1.29 1.29 0 01-1.4-.29 1 1 0 00-.93-.25 1.14 1.14 0 00-.49.27 6.45 6.45 0 01-.54.35z" fill="#fff"/><path d="M211 163.36c-1.11 2.25-2.3 4.45-3.32 6.74.88-3.18 1.75-6.37 2.47-9.59 0-.17-.2-.22-.26-.07-2.51 6.8-4.56 13.8-6.63 20.74s-4.24 13.87-6.05 20.88c-1 3.95-2.21 7.85-3.12 11.83a.12.12 0 00.24.06c1.26-3.45 2.27-7 3.43-10.47s2.17-6.83 3.2-10.27c1.85-6.18 3.69-12.37 5.45-18.59.6-1.47 1.21-2.93 1.8-4.4.93-2.27 1.84-4.58 2.93-6.78.02-.09-.14-.17-.14-.08zM189.71 224a63 63 0 00-5.72-2.64c-2-.9-3.94-1.71-5.92-2.54-3.86-1.6-7.77-3.08-11.68-4.55-2.27-.85-4.58-1.61-6.86-2.44-.09 0-.14.11-.06.14 3.88 1.73 7.74 3.5 11.66 5.15s7.72 3.18 11.64 4.64c1.12.41 2.25.79 3.37 1.19a33.76 33.76 0 003.51 1.2.08.08 0 00.06-.15zM225.86 134.32h-.08c.32 2 .21 4.14-1.43 5.56s-4.08 1-6 .63a13.46 13.46 0 01-5.44-2.4c-1.41-1.1-2.59-3.27-1.34-5.07.06-.08 0-.13-.06-.06a3.44 3.44 0 00-.55 4 8.06 8.06 0 004 3.35 15.3 15.3 0 005.6 1.4 5 5 0 004.58-1.79 6.28 6.28 0 00.72-5.62z" fill="#263238"/></g><g><path d="M425.84 85a22.27 22.27 0 0035.55 17.88l10.91 2.79-4.54-10.16A22.28 22.28 0 10425.84 85z" fill="#fff"/><path d="M425.84 85a22.41 22.41 0 003.38 11.65 24 24 0 001.77 2.5 26 26 0 002.14 2.19 20.64 20.64 0 005 3.44A21.4 21.4 0 00447 107a19.29 19.29 0 003-.06 21.86 21.86 0 0011.16-4.35l.13-.11h.17l10.93 2.7-.51.61-4.58-10.15-.1-.21.12-.21a22.38 22.38 0 002.56-9.47 22.07 22.07 0 00-1.82-9.65 23 23 0 00-5.86-7.91 22.13 22.13 0 00-18.67-4.87A22.1 22.1 0 00425.84 85zm0 0a22.44 22.44 0 018.54-17.61 22.23 22.23 0 0119.22-4.24 22.42 22.42 0 019.1 4.53 22.58 22.58 0 015.48 28.05v-.42l4.5 10.18.37.83-.87-.23-10.9-2.86.3-.06a22.52 22.52 0 01-11.54 4.26 18.88 18.88 0 01-3.1 0 22.73 22.73 0 01-3.08-.38 22.45 22.45 0 01-5.81-2 22.22 22.22 0 01-5-3.54 26.36 26.36 0 01-2.13-2.23 24.2 24.2 0 01-1.76-2.52A22.49 22.49 0 01425.84 85z" fill="#263238"/><path fill="#ffbd3b" d="M444.67 99.83l-10.58-10.72 3.55-3.51 6.19 6.26 12.84-20.15 4.22 2.69-16.22 25.43z"/></g></svg>