<svg width="151" height="43" viewBox="0 0 151 43" fill="none" xmlns="http://www.w3.org/2000/svg">
<path d="M16.1067 17.0246H10.602V41.7057H4.39563V17.0246H0.887695V12.013H4.39563V9.91129C4.39563 6.49833 5.2951 4.01944 7.09404 2.47463C8.92896 0.893887 11.7893 0.103516 15.675 0.103516V5.22296C13.8041 5.22296 12.4909 5.58222 11.7353 6.30074C10.9798 6.98333 10.602 8.18685 10.602 9.91129V12.013H16.1067V17.0246ZM27.7116 1.82796V41.7057H21.5592V1.82796H27.7116ZM63.0431 26.1318C63.0431 27.2456 62.9712 28.2515 62.8272 29.1496H40.1066C40.2865 31.5207 41.168 33.4248 42.751 34.8618C44.3341 36.2989 46.277 37.0174 48.5796 37.0174C51.8897 37.0174 54.2283 35.6343 55.5955 32.868H62.2336C61.3341 35.5983 59.6971 37.8437 57.3225 39.6041C54.9839 41.3285 52.0696 42.1907 48.5796 42.1907C45.7373 42.1907 43.1828 41.562 40.9161 40.3046C38.6854 39.0113 36.9225 37.215 35.6272 34.9157C34.368 32.5805 33.7384 29.8861 33.7384 26.8324C33.7384 23.7787 34.35 21.1022 35.5733 18.803C36.8325 16.4678 38.5775 14.6715 40.8082 13.4141C43.0749 12.1567 45.6653 11.528 48.5796 11.528C51.386 11.528 53.8865 12.1387 56.0812 13.3602C58.2759 14.5817 59.9849 16.3061 61.2082 18.5335C62.4315 20.725 63.0431 23.2578 63.0431 26.1318ZM56.6209 24.1918C56.5849 21.9285 55.7754 20.1143 54.1923 18.7491C52.6093 17.3839 50.6484 16.7013 48.3098 16.7013C46.187 16.7013 44.3701 17.3839 42.859 18.7491C41.3479 20.0783 40.4484 21.8926 40.1606 24.1918H56.6209ZM96.3512 26.1318C96.3512 27.2456 96.2793 28.2515 96.1354 29.1496H73.4151C73.595 31.5207 74.4765 33.4248 76.0595 34.8618C77.6426 36.2989 79.5855 37.0174 81.8881 37.0174C85.1982 37.0174 87.5368 35.6343 88.904 32.868H95.5417C94.6422 35.5983 93.0052 37.8437 90.6306 39.6041C88.2923 41.3285 85.378 42.1907 81.8881 42.1907C79.0458 42.1907 76.4913 41.562 74.2246 40.3046C71.9939 39.0113 70.231 37.215 68.9357 34.9157C67.6765 32.5805 67.0468 29.8861 67.0468 26.8324C67.0468 23.7787 67.6585 21.1022 68.8818 18.803C70.141 16.4678 71.886 14.6715 74.1167 13.4141C76.3833 12.1567 78.9738 11.528 81.8881 11.528C84.6944 11.528 87.195 12.1387 89.3897 13.3602C91.584 14.5817 93.293 16.3061 94.5163 18.5335C95.7396 20.725 96.3512 23.2578 96.3512 26.1318ZM89.9294 24.1918C89.8934 21.9285 89.0839 20.1143 87.5008 18.7491C85.9177 17.3839 83.9569 16.7013 81.6183 16.7013C79.4955 16.7013 77.6786 17.3839 76.1675 18.7491C74.6564 20.0783 73.7569 21.8926 73.4691 24.1918H89.9294ZM109.584 17.0246V33.4607C109.584 34.5744 109.836 35.3828 110.34 35.8857C110.879 36.3528 111.779 36.5863 113.038 36.5863H116.816V41.7057H111.959C109.188 41.7057 107.066 41.0591 105.591 39.7657C104.115 38.4724 103.378 36.3707 103.378 33.4607V17.0246H99.87V12.013H103.378V4.63018H109.584V12.013H116.816V17.0246H109.584ZM120.435 26.7246C120.435 23.7428 121.047 21.1022 122.27 18.803C123.53 16.5037 125.221 14.7254 127.343 13.468C129.502 12.1746 131.877 11.528 134.467 11.528C136.806 11.528 138.839 11.995 140.566 12.9291C142.329 13.8272 143.732 14.9589 144.775 16.3241V12.013H150.982V41.7057H144.775V37.2868C143.732 38.688 142.311 39.8556 140.512 40.7896C138.713 41.7237 136.662 42.1907 134.359 42.1907C131.805 42.1907 129.466 41.5441 127.343 40.2507C125.221 38.9215 123.53 37.0893 122.27 34.7541C121.047 32.383 120.435 29.7065 120.435 26.7246ZM144.775 26.8324C144.775 24.7846 144.343 23.0063 143.48 21.4974C142.652 19.9885 141.555 18.8389 140.188 18.0485C138.821 17.2581 137.346 16.863 135.762 16.863C134.179 16.863 132.704 17.2581 131.337 18.0485C129.97 18.803 128.855 19.9346 127.991 21.4435C127.164 22.9165 126.75 24.6768 126.75 26.7246C126.75 28.7724 127.164 30.5687 127.991 32.1135C128.855 33.6583 129.97 34.8439 131.337 35.6702C132.74 36.4606 134.215 36.8557 135.762 36.8557C137.346 36.8557 138.821 36.4606 140.188 35.6702C141.555 34.8798 142.652 33.7302 143.48 32.2213C144.343 30.6765 144.775 28.8802 144.775 26.8324Z" fill="#593AE3"/>
</svg>
