<svg width="168" height="48" viewBox="0 0 168 48" fill="none" xmlns="http://www.w3.org/2000/svg">
<path d="M17.36 19.52H11.24V47H4.34V19.52H0.44V13.94H4.34V11.6C4.34 7.8 5.34 5.04 7.34 3.32C9.38 1.56 12.56 0.679999 16.88 0.679999V6.38C14.8 6.38 13.34 6.78 12.5 7.58C11.66 8.34 11.24 9.68 11.24 11.6V13.94H17.36V19.52ZM30.2619 2.6V47H23.4219V2.6H30.2619ZM69.5422 29.66C69.5422 30.9 69.4622 32.02 69.3022 33.02H44.0422C44.2422 35.66 45.2222 37.78 46.9822 39.38C48.7422 40.98 50.9022 41.78 53.4622 41.78C57.1422 41.78 59.7422 40.24 61.2622 37.16H68.6422C67.6422 40.2 65.8222 42.7 63.1822 44.66C60.5822 46.58 57.3422 47.54 53.4622 47.54C50.3022 47.54 47.4622 46.84 44.9422 45.44C42.4622 44 40.5022 42 39.0622 39.44C37.6622 36.84 36.9622 33.84 36.9622 30.44C36.9622 27.04 37.6422 24.06 39.0022 21.5C40.4022 18.9 42.3422 16.9 44.8222 15.5C47.3422 14.1 50.2222 13.4 53.4622 13.4C56.5822 13.4 59.3622 14.08 61.8022 15.44C64.2422 16.8 66.1422 18.72 67.5022 21.2C68.8622 23.64 69.5422 26.46 69.5422 29.66ZM62.4022 27.5C62.3622 24.98 61.4622 22.96 59.7022 21.44C57.9422 19.92 55.7622 19.16 53.1622 19.16C50.8022 19.16 48.7822 19.92 47.1022 21.44C45.4222 22.92 44.4222 24.94 44.1022 27.5H62.4022ZM106.573 29.66C106.573 30.9 106.493 32.02 106.333 33.02H81.0734C81.2734 35.66 82.2534 37.78 84.0134 39.38C85.7734 40.98 87.9334 41.78 90.4934 41.78C94.1734 41.78 96.7734 40.24 98.2934 37.16H105.673C104.673 40.2 102.853 42.7 100.213 44.66C97.6134 46.58 94.3734 47.54 90.4934 47.54C87.3334 47.54 84.4934 46.84 81.9734 45.44C79.4934 44 77.5334 42 76.0934 39.44C74.6934 36.84 73.9934 33.84 73.9934 30.44C73.9934 27.04 74.6734 24.06 76.0334 21.5C77.4334 18.9 79.3734 16.9 81.8534 15.5C84.3734 14.1 87.2534 13.4 90.4934 13.4C93.6134 13.4 96.3934 14.08 98.8334 15.44C101.273 16.8 103.173 18.72 104.533 21.2C105.893 23.64 106.573 26.46 106.573 29.66ZM99.4334 27.5C99.3934 24.98 98.4934 22.96 96.7334 21.44C94.9734 19.92 92.7934 19.16 90.1934 19.16C87.8334 19.16 85.8134 19.92 84.1334 21.44C82.4534 22.92 81.4534 24.94 81.1334 27.5H99.4334ZM121.285 19.52V37.82C121.285 39.06 121.565 39.96 122.125 40.52C122.725 41.04 123.725 41.3 125.125 41.3H129.325V47H123.925C120.845 47 118.485 46.28 116.845 44.84C115.205 43.4 114.385 41.06 114.385 37.82V19.52H110.485V13.94H114.385V5.72H121.285V13.94H129.325V19.52H121.285ZM133.349 30.32C133.349 27 134.029 24.06 135.389 21.5C136.789 18.94 138.669 16.96 141.029 15.56C143.429 14.12 146.069 13.4 148.949 13.4C151.549 13.4 153.809 13.92 155.729 14.96C157.689 15.96 159.249 17.22 160.409 18.74V13.94H167.309V47H160.409V42.08C159.249 43.64 157.669 44.94 155.669 45.98C153.669 47.02 151.389 47.54 148.829 47.54C145.989 47.54 143.389 46.82 141.029 45.38C138.669 43.9 136.789 41.86 135.389 39.26C134.029 36.62 133.349 33.64 133.349 30.32ZM160.409 30.44C160.409 28.16 159.929 26.18 158.969 24.5C158.049 22.82 156.829 21.54 155.309 20.66C153.789 19.78 152.149 19.34 150.389 19.34C148.629 19.34 146.989 19.78 145.469 20.66C143.949 21.5 142.709 22.76 141.749 24.44C140.829 26.08 140.369 28.04 140.369 30.32C140.369 32.6 140.829 34.6 141.749 36.32C142.709 38.04 143.949 39.36 145.469 40.28C147.029 41.16 148.669 41.6 150.389 41.6C152.149 41.6 153.789 41.16 155.309 40.28C156.829 39.4 158.049 38.12 158.969 36.44C159.929 34.72 160.409 32.72 160.409 30.44Z" fill="white"/>
</svg>
