<svg xmlns="http://www.w3.org/2000/svg" viewBox="0 0 750 500"><path fill="#f5f5f5" d="M191.24 328.45H87.09v-80.33h104.15z"/><path d="M113.18 327.88c.14 0 .26-17.9.26-40s-.12-40-.26-40-.26 17.9-.26 40 .08 40 .26 40z" fill="#ebebeb"/><path fill="#fafafa" d="M103.9 319.19h-7.98v-9.03h7.98z"/><path fill="#ebebeb" d="M147.63 248.32h11.83v17.14h-11.83zM147.63 311.07h11.83v17.14h-11.83zM58.99 329.58h171.94v132.61H58.99z"/><path d="M187.85 461.26c-.19 0-.34-29.56-.34-66s.15-66 .34-66 .34 29.55.34 66-.19 66-.34 66z" fill="#e0e0e0"/><path fill="#fafafa" d="M203.17 432.01h13.18v14.9h-13.18z"/><path fill="#e0e0e0" d="M111.44 329.92h19.53v28.3h-19.53zM111.44 433.5h19.53v28.3h-19.53z"/><path d="M365.26 96a12.15 12.15 0 01-5 0 12.15 12.15 0 015 0zM375.26 96a12.15 12.15 0 01-5 0 12.15 12.15 0 015 0zM385.26 96a12.15 12.15 0 01-5 0 12.15 12.15 0 015 0zM395.26 96a12.15 12.15 0 01-5 0 12.15 12.15 0 015 0zM405.26 96a12.15 12.15 0 01-5 0 12.15 12.15 0 015 0zM415.26 96a12.15 12.15 0 01-5 0 12.15 12.15 0 015 0zM425.26 96a12.15 12.15 0 01-5 0 12.15 12.15 0 015 0zM435.26 96a12.15 12.15 0 01-5 0 12.15 12.15 0 015 0zM445.26 96a12.15 12.15 0 01-5 0 12.15 12.15 0 015 0zM455.26 96a12.15 12.15 0 01-5 0 12.15 12.15 0 015 0zM465.26 96a12.15 12.15 0 01-5 0 12.15 12.15 0 015 0zM475.26 96a12.15 12.15 0 01-5 0 12.15 12.15 0 015 0zM485.26 96a12.15 12.15 0 01-5 0 12.15 12.15 0 015 0zM495.26 96a12.15 12.15 0 01-5 0 12.15 12.15 0 015 0zM505.26 96a12.15 12.15 0 01-5 0 12.15 12.15 0 015 0zM515.26 96a12.15 12.15 0 01-5 0 12.15 12.15 0 015 0zM525.26 96a12.15 12.15 0 01-5 0 12.15 12.15 0 015 0zM535.26 96a12.15 12.15 0 01-5 0 12.15 12.15 0 015 0zM545.26 96a12.15 12.15 0 01-5 0 12.15 12.15 0 015 0zM555.26 96a12.15 12.15 0 01-5 0 12.15 12.15 0 015 0zM565.26 96a12.15 12.15 0 01-5 0 12.15 12.15 0 015 0zM575.26 96a12.15 12.15 0 01-5 0 12.15 12.15 0 015 0zM585.26 96a12.15 12.15 0 01-5 0 12.15 12.15 0 015 0zM587.82 103.41a6.27 6.27 0 01-.26-2.5 6.31 6.31 0 01.26-2.5 6.11 6.11 0 01.26 2.5 6.07 6.07 0 01-.26 2.5zM587.82 113.41a6.27 6.27 0 01-.26-2.5 6.31 6.31 0 01.26-2.5 6.11 6.11 0 01.26 2.5 6.07 6.07 0 01-.26 2.5zM587.82 123.41a6.27 6.27 0 01-.26-2.5 6.31 6.31 0 01.26-2.5 6.11 6.11 0 01.26 2.5 6.07 6.07 0 01-.26 2.5zM587.82 133.41a12.15 12.15 0 010-5 12.15 12.15 0 010 5zM587.82 143.41a12.15 12.15 0 010-5 12.15 12.15 0 010 5zM589.77 151.46c0 .13-.83.23-1.95.26h-.25v-.26-.55a6.31 6.31 0 01.26-2.5 6.11 6.11 0 01.26 2.5v.55l-.26-.25a4.64 4.64 0 011.94.25zM599.77 151.46a12.15 12.15 0 01-5 0 12.15 12.15 0 015 0zM609.77 151.46a12.15 12.15 0 01-5 0 12.15 12.15 0 015 0zM619.77 151.46a12.15 12.15 0 01-5 0 12.15 12.15 0 015 0zM629.77 151.46a12.15 12.15 0 01-5 0 12.15 12.15 0 015 0zM639.77 151.46a12.15 12.15 0 01-5 0 12.15 12.15 0 015 0zM649.77 151.46a12.15 12.15 0 01-5 0 12.15 12.15 0 015 0zM659.77 151.46a12.15 12.15 0 01-5 0 12.15 12.15 0 015 0zM669.77 151.46a12.15 12.15 0 01-5 0 12.15 12.15 0 015 0zM673.66 157.58a12.15 12.15 0 010-5 12.15 12.15 0 010 5zM673.66 167.58a12.15 12.15 0 010-5 12.15 12.15 0 010 5zM673.66 177.58a12.15 12.15 0 010-5 12.15 12.15 0 010 5zM673.66 187.58a12.15 12.15 0 010-5 12.15 12.15 0 010 5zM673.66 197.58a12.15 12.15 0 010-5 12.15 12.15 0 010 5zM673.66 207.58a12.15 12.15 0 010-5 12.15 12.15 0 010 5zM673.66 217.58a12.15 12.15 0 010-5 12.15 12.15 0 010 5zM673.66 227.58a12.15 12.15 0 010-5 12.15 12.15 0 010 5zM673.66 237.58a12.15 12.15 0 010-5 12.15 12.15 0 010 5zM673.66 247.58a12.15 12.15 0 010-5 12.15 12.15 0 010 5zM673.66 257.58a12.15 12.15 0 010-5 12.15 12.15 0 010 5zM417.73 113s-7.76-4.3-15.37 14.06-10.21 28.8-10.21 28.8-2.09 3.89-4.82 1.67-6.75-8.8-11-7.23c-4.38 1.64-5.46 6.75-4 14s4 23.33 4.21 24.78-.44 3.61-2.54 2.39-14.58-13.08-19.86-6.83 2 25.88 2.8 28 .4 3.13-.6 3.76-4.83-3.76-8.51-7-8.53-6.33-11.28-2.47-2.53 19 13.73 42.33l8.23 10.32 13.15-1.77c27.89-5.5 38.55-16.24 39.26-20.93s-4.92-5.7-9.82-5.88-10.69.27-11-.88.14-2.1 2.18-3.13 20.93-10.06 21.48-18.23-16.68-8.29-19-8.88-1.32-2.61-.17-3.48 14.16-10.67 20.24-14.91 8.86-8.67 6.84-12.89c-1.94-4.06-9.4-2.12-12.91-2.42s-2.31-4.54-2.31-4.54 5.38-9.33 12.65-27.82-1.52-20.8-1.52-20.8" fill="#ebebeb"/><path d="M359 257c5.39-13.56 13-32.23 21.48-52.83s16.12-39.24 21.59-52.77c2.72-6.75 4.92-12.22 6.46-16l1.76-4.35c.2-.48.35-.86.47-1.13a4.09 4.09 0 01.17-.38s0 .14-.13.4-.24.65-.43 1.14c-.39 1-.95 2.5-1.68 4.39-1.47 3.81-3.63 9.3-6.33 16.08-5.39 13.56-13 32.23-21.47 52.82s-16.12 39.25-21.59 52.78" fill="#e0e0e0"/><path d="M381.61 159.78a4.21 4.21 0 01.41.86 68 68 0 01.94 2.42c.77 2.06 1.75 4.93 2.77 8.11s1.89 6 2.59 8.17l.79 2.47a3.74 3.74 0 01.25.92 4.21 4.21 0 01-.41-.86c-.24-.57-.56-1.4-.93-2.43-.75-2.06-1.69-4.94-2.72-8.13l-2.64-8.14c-.31-1-.58-1.79-.8-2.47a3.74 3.74 0 01-.25-.92zM390.59 182.87c0-.12 5.78-2.41 13-5.11s13.12-4.81 13.16-4.69-5.77 2.41-13 5.11-13.12 4.82-13.16 4.69zM376.15 213.91a4 4 0 011-.13l2.64-.21c2.23-.17 5.31-.42 8.7-.82s6.44-.85 8.65-1.2l2.62-.41a3.37 3.37 0 011-.09 4.67 4.67 0 01-.94.27c-.61.14-1.5.33-2.6.55-2.19.42-5.25.93-8.65 1.33s-6.49.6-8.73.69c-1.12 0-2 .07-2.65.06a4.52 4.52 0 01-1.04-.04zM363.44 194.81a3.71 3.71 0 01.58.69c.34.46.84 1.14 1.44 2 1.2 1.68 2.84 4 4.62 6.63s3.37 5 4.51 6.71c.57.86 1 1.57 1.32 2.06a3.56 3.56 0 01.44.79s-.23-.23-.58-.69-.84-1.14-1.45-2c-1.2-1.69-2.83-4-4.62-6.63s-3.37-5-4.51-6.71c-.56-.86-1-1.57-1.32-2.06a3.22 3.22 0 01-.43-.79zM347.21 220.59a5.49 5.49 0 01.73.89c.49.68 1.12 1.52 1.86 2.54 1.55 2.15 3.67 5.13 6 8.45s4.4 6.33 5.88 8.53c.7 1 1.28 1.92 1.74 2.61a7 7 0 01.59 1 4.91 4.91 0 01-.73-.89l-1.86-2.53c-1.55-2.15-3.67-5.14-6-8.45s-4.39-6.33-5.87-8.53l-1.74-2.61a5 5 0 01-.6-1.01zM363.75 243.92a6.7 6.7 0 011.22-.2l3.34-.38c2.82-.32 6.71-.77 11-1.39s8.15-1.28 10.94-1.77l3.31-.58a6.72 6.72 0 011.23-.16 6.45 6.45 0 01-1.19.33c-.78.19-1.9.44-3.29.72-2.78.58-6.65 1.29-10.94 1.9s-8.2 1-11 1.27c-1.41.12-2.56.2-3.35.24a6.89 6.89 0 01-1.27.02z" fill="#e0e0e0"/><path d="M708.8 282.05a35.14 35.14 0 10-65.43 17.75l.1.13c1.34 2.27 3 3.89 4.74 6.28l20.4 27a6.33 6.33 0 0010.12 0l20.07-26.57a76.08 76.08 0 005.1-6.77l.07-.09a35 35 0 004.83-17.73zm-35.14 15.3a15.47 15.47 0 1115.46-15.47 15.47 15.47 0 01-15.46 15.47zM542.9 125.82v41.32a1.61 1.61 0 001.61 1.61h86.64a1.6 1.6 0 001.61-1.63l-.19-15.12a1.72 1.72 0 00-.32-1l-12.43-16.61a1.61 1.61 0 00-1.28-.64l-14.32-.11a1.62 1.62 0 01-1.6-1.61v-6.25a1.61 1.61 0 00-1.61-1.61h-56.5a1.61 1.61 0 00-1.61 1.65z" fill="#f5f5f5"/><path d="M606.65 137.28v13.26a.92.92 0 00.94.92l19.13-.34a.92.92 0 00.75-1.44l-9-13.19a.91.91 0 00-.78-.41l-10.19.28a.92.92 0 00-.85.92z" fill="#ebebeb"/><path fill="#f5f5f5" d="M541.16 170.01h93.33v2.88h-93.33z"/><circle cx="562.79" cy="171.11" r="9.23" transform="rotate(-45 562.788 171.115)" fill="#ebebeb"/><path d="M568.22 171.11a5.43 5.43 0 11-5.43-5.43 5.44 5.44 0 015.43 5.43z" fill="#fafafa"/><path d="M602.55 168.75c-.23 0-.42-10-.42-22.27s.19-22.27.42-22.27.42 10 .42 22.27-.19 22.27-.42 22.27z" fill="#ebebeb"/><circle cx="613.1" cy="171.11" r="9.23" transform="rotate(-45 613.095 171.108)" fill="#ebebeb"/><path d="M618.53 171.11a5.44 5.44 0 11-5.43-5.43 5.44 5.44 0 015.43 5.43z" fill="#fafafa"/><path d="M613.12 154.08c0 .23-1.32.42-3 .42s-2.95-.19-2.95-.42 1.32-.42 2.95-.42 3 .18 3 .42z" fill="#ebebeb"/><g><path d="M165.86 457.79c13.48-9.35 16.59-26.77 16.11-42.44-.08-2.61.22-5.37-1-7.67s-4.13-3.87-6.48-2.78c-1.94.91-2.8 3.16-3.89 5a15.29 15.29 0 01-6.15 5.84c-1.67.85-3.73 1.37-5.38.46-2.25-1.25-2.5-4.37-2.48-7q.08-7.27.14-14.54A24.13 24.13 0 00156 387c-.8-2.47-2.58-4.77-5.06-5.48s-5.53.72-6.06 3.26a23.3 23.3 0 00-.09 3.24 2.74 2.74 0 01-1.61 2.57c-1 .3-2.08-.44-2.85-1.2-2.68-2.64-4.49-6-6.18-9.4s-3.33-6.82-5.76-9.69-5.79-5.16-9.51-5.38-7.7 2.06-8.66 5.71 1.17 7.4 3.49 10.37a58 58 0 0012 11.57 4.77 4.77 0 012 2.18c.55 1.74-1.09 3.45-2.81 4-1.94.64-4 .43-6.07.66s-4.23 1.12-5 3c-1.07 2.66 1.14 5.45 3.32 7.28a49.53 49.53 0 0014.7 8.55 16.86 16.86 0 015.46 2.68c1.54 1.35 2.46 3.69 1.52 5.52s-3.33 2.41-5.34 2-3.79-1.47-5.7-2.2c-3.57-1.36-8.19-1.13-10.49 1.95a8.25 8.25 0 00-.9 7.28 19 19 0 003.92 6.44 50 50 0 0021.31 15.08c8.28 2.91 16 3.71 24.21.73" fill="#ffbd3b"/><path d="M165 462.2c-.54-6.21-.82-6.34-3.12-14.25a232 232 0 00-9.16-25.13q-1.4-3.27-2.74-6.46c-.91-2.12-1.8-4.22-2.81-6.22a115.7 115.7 0 00-6.46-11.14c-2.21-3.46-4.44-6.65-6.55-9.63s-4.13-5.7-6.08-8.11a92.89 92.89 0 00-10-10.68c-1.28-1.17-2.3-2-3-2.62l-.8-.65c-.18-.15-.28-.22-.29-.21a3.45 3.45 0 00.26.25l.77.69c.68.6 1.68 1.49 2.94 2.68a98 98 0 019.89 10.76c1.93 2.41 3.93 5.15 6 8.13s4.3 6.18 6.51 9.63a117.4 117.4 0 016.37 11.14c1 2 1.89 4.08 2.79 6.2s1.81 4.28 2.74 6.46a238.86 238.86 0 019.18 25.07c2.31 7.88 2.62 8 3.21 14.15" fill="#263238"/><path d="M147 410.12a5.28 5.28 0 00.25-1.11c.14-.72.31-1.76.5-3.06.37-2.59.77-6.18 1.2-10.14s.87-7.54 1.28-10.12c.21-1.29.38-2.33.52-3.05a4.69 4.69 0 00.14-1.13 6.36 6.36 0 00-.33 1.09c-.18.71-.41 1.75-.66 3-.5 2.57-1 6.16-1.43 10.12s-.78 7.45-1.06 10.16c-.13 1.22-.25 2.25-.34 3.07a4.46 4.46 0 00-.07 1.17zM113.58 403.75a6.88 6.88 0 001.34.17c.85.08 2.1.18 3.63.37 3.06.34 7.27 1 11.89 1.85s8.76 1.88 11.74 2.68c1.49.39 2.69.74 3.52 1a8.09 8.09 0 001.31.32 7.85 7.85 0 00-1.25-.51c-.82-.29-2-.69-3.49-1.12-3-.89-7.11-1.93-11.74-2.83a116.22 116.22 0 00-12-1.71c-1.54-.14-2.79-.2-3.65-.22a7.5 7.5 0 00-1.3 0zM161.44 447.34a1.81 1.81 0 00.24-.41c.15-.33.34-.73.57-1.21.5-1.05 1.17-2.59 2-4.5 1.62-3.83 3.71-9.18 5.92-15.13s4.25-11.31 5.79-15.16l1.85-4.56c.19-.5.36-.91.49-1.24s.16-.44.14-.45a1.93 1.93 0 00-.23.41l-.57 1.2c-.5 1.06-1.18 2.6-2 4.51-1.63 3.82-3.71 9.18-5.92 15.12s-4.25 11.31-5.8 15.17c-.75 1.87-1.38 3.41-1.84 4.55-.2.5-.36.91-.49 1.25a2.29 2.29 0 00-.15.45zM117.05 432.86a2.2 2.2 0 00.44.18l1.29.44 4.76 1.56c4 1.31 9.53 3.2 15.63 5.28s11.65 3.93 15.69 5.16c2 .62 3.66 1.1 4.8 1.41l1.32.36a2.65 2.65 0 00.46.09s-.14-.08-.44-.19l-1.28-.43-4.72-1.56c-4-1.32-9.53-3.2-15.64-5.29s-11.64-3.93-15.68-5.16c-2-.62-3.66-1.1-4.8-1.41l-1.32-.35a1.36 1.36 0 00-.51-.09z" fill="#263238"/></g><g><path d="M328.24 462.19H189.07c-16.81-.07-31-14.41-30.95-31.23l1.48-350.51a30.45 30.45 0 0130.59-30.33l139.81.65a30.44 30.44 0 0130.31 30.58l-1.48 350.51a30.45 30.45 0 01-30.59 30.33z" fill="#263238"/><path d="M329.81 64.08L302.7 64a6.73 6.73 0 00-6.61 6.85v4.92a6.74 6.74 0 01-6.61 6.85l-52.84-.25a6.73 6.73 0 01-6.55-6.91v-4.91a6.76 6.76 0 00-6.56-6.92H214l-23.73-.11a21.33 21.33 0 00-21.42 21.24l-1.45 342.05a21.33 21.33 0 0021.23 21.42l139.53.64a21.32 21.32 0 0021.43-21.24L351 85.5a21.34 21.34 0 00-21.19-21.42z" fill="#f5f5f5"/><path d="M270.59 384.22c-.16 4.13-.31 8-.44 11.23h20l-2.45-12.32zM189.13 389.37l.17 6.08h78.85c.13-3.42.28-7.2.43-11.1zM288.75 383.07l2.46 12.37h36.96l-.45-14.83-38.97 2.46zM272.59 210.08l6.99-40.51-18.3-1.36v41.87h11.31zM187.48 366.88l-19.86 7.78-.06 14.07 20.51-1.3-.59-20.55zM187.39 363.72l-1.08-37.73h-.02v-13.31l-18.42 1.95-.24 56.81 19.75-7.74.01.02zM186.29 282.98l-18.27-2.42-.13 31.06 18.4-1.95v-26.69zM322.48 313.24l-.77 10.82-21.58 2.32 1.67 8.56 24.49-1.85-.36-12.27 1.95-8.12-5.4.54zM283.58 336.31l17.21-1.3-3.75-19.2-15.02 1.52 1.56 18.98zM283.75 338.31l1.31 16.01 2.33 21.96.96 4.81 39.31-2.48-1.31-43.52-42.6 3.22z" fill="#f5f5f5"/><path d="M216.09 262.7l1.51 2.59L187.29 283v41.95l32-2.27 61.71-6.25-2.26-27.49-58.91-7.7.39-3 58.27 7.61-3.82-46.53-57.68 5.54-.19-2 57.7-5.54-2-24.28H217l-48.71 8.86-.24 55.6 18.43 2.5zm-25.7 58.21s.23-34.58 0-35.87l24.74-13.16 3.21 47.27zM320.45 313.45l-22.41 2.26 1.7 8.7 20.09-2.16.62-8.8zM270.87 376.81c-.07 1.82-.14 3.62-.2 5.4l16.68-1.06-.86-4.3zM234.94 210.08l2.94-13.33h22.4v-28.61l-70.03-5.19v26.87l-21.87 4.95-.1 24.12 48.43-8.81h18.23zM281.67 130.45l-.6-2.45 26.74-10.58-17.39-34.92a6.22 6.22 0 01-1 .08l-29.55-.14.8 48.87zM322.19 111.72V64.05L302.7 64a6.73 6.73 0 00-6.61 6.85v4.92a7 7 0 01-2.86 5.64l17.4 34.94zM221.67 113.77l-2.26-50.2H214l-21.15-.1-9 44.89zm-4.82-45.11l.72 40.88-28.11-4.11 6.15-36.77zM222.69 113.92v.42c0 3.92.12 11 .18 18.51l36.83-1.5-.8-48.91-22.29-.11a6.73 6.73 0 01-6.55-6.91v-4.91a6.76 6.76 0 00-6.56-6.92h-3.11l2.26 50.33zM180.87 107.91l8.92-44.45a21.32 21.32 0 00-20.94 21.22l-.1 22.16.1-.65z" fill="#f5f5f5"/><path fill="#f5f5f5" d="M187.25 162.73l-18.73-1.39-.13 30.35 18.86-4.27v-24.69zM180.67 108.89l-11.92-1.71-.21 49.15 2.57.19 9.56-47.63zM218.5 363.14l.31-39.45-31.51 2.23 1.12 38.65 30.08-1.43zM224.3 354l44.62 21.38c.54-14 1-27 1-27.87l1-.05.48-.94c.63.31.63.31.3 9.84-.19 5.31-.45 12.38-.72 19.45h15.43l-2.27-21.44-3-37-58.31 5.88zM333.69 288.56l-.51-5.21-53.49 5.57 2.25 27.41 46.19-4.66 5.56-23.11zM260.28 199.75h-19.99l-2.28 10.33h22.27v-10.33zM325.43 203.24l-50.05-3.46-2 11.82 2.11 25.66 52.78-5.08zm-48.21 8.34l2.69-7.46 43.47 2.75 2.51 21.34-47.2 5.6zM330.62 256.87l-2.2-22.69-52.81 5.07 1.99 24.15 53.02-6.53zM188.13 389.44l-20.49 1.29-.08-1.33-.03 6.04h20.77l-.17-6zM350.67 100.45l.3.77.03-15.72a21.34 21.34 0 00-21.23-21.42h-6.65v47.28z"/><path d="M268.88 376.51l-45.55-21.83-1.61-31.27-1.9.19-.33 40.5-31.05 1.47v.9l.6 20.88 79.59-5c.1-1.95.18-3.9.25-5.84zm-78.49-8.36l43.46-3 28.27 13.11-71.73 3.88zM337.72 153l1.87-11.05c-16.34-5.83-17.47-22.87-17.42-28l-10.66 4.22 16.05 32.23zM279.44 285.93l22.21-2.31-4.37-19.62-19.44 2.4 1.6 19.53zM325.5 169.9h-41.48l-3.44-.26-4.69 27.17 49.24 3.4-1.14-11.81 4.85-17.44-3.34-1.06zM324.49 164.9l.52-13-16.3-32.73-25.28 10 8.69 35.68zm-16.77-41.71l14.94 28.42-2.16 8.86-25.56-1-6.39-26.88zM330.94 321.34l.77 25.47 17.97-1.01.06 1-18 1.01.91 30.48 17-1.08.12 2-17.06 1.08.46 15.15h16.56l.36-84.98-16.94 1.71-2.21 9.17zM221.7 114.78l-38.06-5.46-9.52 47.42 47.75 3.54c.19-7.28.02-29.7-.17-45.5zM284.3 164.9h5.76l-8.15-33.46-21.18.87.51 30.88 23.06 1.71zM167.43 419.79v7.64zM222.84 160.35l37.39 2.77-.5-30.77-36.84 1.5c.11 10.41.11 21.51-.05 26.5zM330.91 259.86l-32.64 4.02 4.39 19.63 30.23-3.14-1.98-20.51z" fill="#f5f5f5"/><path d="M339.76 140.9l2.09-12.4 9 .7.12-26.71-27.79 11c-.57 18.79 11.24 25.4 16.58 27.41zM329.06 188.84l1.13 11.72 20.36 1.41.1-24.13-17.04-5.38-4.55 16.38zM338.74 288.91l-5.34 22.23 16.69-1.69.1-23.31c-5.12-1.35-9.59-2.45-12-2.91zM327.48 165.28l23.19 7.33.06-13.19-22.78-5.89-.47 11.75zM337.9 280.18c1.87.28 5.41 1 12.3 2.85l.22-51-17 1.64zM333.21 231.71l17.22-1.66.1-25.07-20.05-1.39 2.73 28.12z" fill="#f5f5f5"/><path d="M341.68 141.53a93.52 93.52 0 009.11 2.33V131.2l-7.33-.57zM339.67 153.46l11.07 2.86.05-11.43c-2.87-.58-6-1.36-9.28-2.36z" fill="#f5f5f5"/><path d="M188.13 389.43l.17 6h1l-.17-6.08 79.45-5c-.15 3.9-.3 7.68-.43 11.1h2c.13-3.23.28-7.1.44-11.23l17.15-1.09 2.45 12.32h1l-2.46-12.38 39-2.46.45 14.84h5l-.46-15.16 17.06-1.08-.12-2-17 1.08-.91-30.48 18-1-.06-1-18 1-.77-25.47 2.21-9.17 16.94-1.71v-1l-16.69 1.69 5.34-22.23-.55-5.68c2.41.46 6.88 1.56 12 2.91V283c-6.89-1.82-10.43-2.57-12.3-2.85l-4.5-46.48 17-1.64v-2l-17.22 1.66-2.73-28.12 20 1.39v-3l-20.36-1.41-1.13-11.72 4.55-16.38 17 5.38v-5.23l-23.19-7.33.47-11.75 22.78 5.89v-3.1l-11.07-2.86 1.84-10.93c3.32 1 6.41 1.78 9.28 2.36v-1a93.52 93.52 0 01-9.11-2.33l1.83-10.9 7.33.57v-2l-9-.7-2.09 12.4c-5.34-2-17.15-8.62-16.58-27.42l27.79-11v-1.27l-.3-.77-27.48 10.88V64.06h-1v47.67l-11.58 4.59L293 81.38a6.34 6.34 0 01-2.79 1.13l17.39 34.92L281.07 128l.6 2.45-21 .86-.8-48.87h-1l.8 48.91-36.83 1.5c-.06-7.54-.14-14.59-.18-18.51v-.42l-2.26-50.33h-1l2.26 50.2-37.83-5.43 9-44.89h-3.06l-8.92 44.45-12-1.72-.1.65v.34l11.92 1.71-9.56 47.63-2.57-.19v5l18.73 1.39v24.69l-18.86 4.27v3.08l21.87-5V163l70 5.19v28.62h-22.4l-2.94 13.32h-18.23l-48.43 8.81v3.05l48.72-8.91h55.48l2 24.28-57.7 5.54.19 2 57.68-5.54 3.82 46.53-58.27-7.61-.39 3 58.91 7.7 2.28 27.45-61.67 6.22-32 2.27V283l30.31-17.68-1.51-2.59L186.48 280 168 277.54v3l18.29 2.46v26.69l-18.4 1.95v3l18.42-1.95V326l1.09 37.73-19.75 7.74v3.22l19.86-7.78.59 20.55-20.51 1.3v.67l.08 1.33zm82.54-7.22c.06-1.78.13-3.58.2-5.4h15.62l.86 4.3zm17.68-1.12l-1-4.81-2.33-22-1.31-16 42.6-3.22 1.31 43.51zm9.65-65.38l22.42-2.26-.63 8.8-20.09 2.16zm-1 .1l3.75 19.2-17.21 1.3-1.56-19zm29.25 17.28l-24.49 1.85-1.67-8.56 21.58-2.32.77-10.82 5.4-.54-1.95 8.12zm-29-69.09l4.37 19.62-22.21 2.31-1.6-19.53zm5.38 19.51l-4.39-19.63 32.64-4 2 20.51zm22.47-83.3l-49.24-3.41 4.69-27.16 3.44.26h41.49l3.33 1.06L324 188.4zm-3-86.33c-.05 5.16 1.08 22.2 17.42 28l-1.8 11.12-10.16-2.63-16.05-32.27zm-13.46 5.33L325 151.94l-.52 13h-32.36l-8.69-35.68zm-26.8 12.23l8.15 33.46h-5.69l-23.06-1.7-.51-30.89zm-22.18.91l.5 30.77-37.39-2.77c.16-5 .13-16.09 0-26.5zm-76.09-23l38.06 5.46c.19 15.8.36 38.2.17 45.5l-47.75-3.54zm95.94 60.25l-7 40.51h-11.23v-41.9zm-39.29 30.19h20v10.32H238zm33 11.84l2-11.82 50.05 3.46 2.8 28.94-52.78 5.08zm55.08 22.58l2.2 22.69-53 6.54-2-24.16zm-48.73 54.74l53.49-5.57.51 5.21-5.56 23.11-46.19 4.66zm4.38 65.49l2.27 21.44h-15.31c.27-7.07.53-14.14.72-19.45.33-9.53.33-9.53-.3-9.84l-.48.94-1 .05c0 .83-.43 13.9-1 27.87L224.3 354l-1.58-30.73 58.28-5.84zm-65.26-30.72l-.31 39.45-30.08 1.43-1.12-38.65zm-30.34 42.8v-.9l31.05-1.47.33-40.5 1.9-.19 1.61 31.27 45.55 21.83c-.07 1.94-.15 3.89-.22 5.83l-79.59 5z" fill="#fff"/><path fill="#ebebeb" d="M233.85 365.1l-43.46 3.04v13.96l71.74-3.89-28.28-13.11zM323.38 206.87l-43.47-2.75-2.69 7.46 1.47 22.23 47.2-5.6-2.51-21.34zM188.63 448.23l139.53.64a21.32 21.32 0 0021.43-21.24l.14-32.18h-182.2l-.1 24.34v7.66a21.32 21.32 0 0021.2 20.78zM217.57 109.54l-.72-40.88h-21.23l-6.16 36.77 28.11 4.11zM320.5 160.47l2.16-8.86-14.94-28.42-19.17 9.44 6.39 26.88 25.56.96zM190.39 285c.23 1.29 0 35.87 0 35.87l28-1.76-3.21-47.27zM283.59 313.12l-1.48-21.43 47.93-6.16v3.7l-5.8 19.71-40.65 4.18z"/><path d="M248.14 135.39a5.84 5.84 0 11-5.84-5.84 5.84 5.84 0 015.84 5.84z" fill="#ffbd3b"/><path d="M248.13 135.14a5.84 5.84 0 11-6.08-5.58 5.84 5.84 0 016.08 5.58z" fill="#fff" opacity=".6"/><circle cx="242.3" cy="135.19" r="3.88" fill="#ffbd3b"/><path d="M332.53 368.54A2.5 2.5 0 11330 366a2.5 2.5 0 012.53 2.54z" fill="#ffbd3b"/><path d="M328.54 367.73l-.61-14-42.12 2.05a6.43 6.43 0 01-3.19-.68l-59.75-30.18a4.34 4.34 0 01-2.37-3.64l-8.14-157.74a2.63 2.63 0 012.83-2.76l25.61 1.89v-28h3v28.38a2.65 2.65 0 01-.8 1.95 2.69 2.69 0 01-2 .69l-25.59-1.89 8.11 157.33a1.34 1.34 0 00.73 1.11l59.75 30.2a3.39 3.39 0 001.69.36l42.48-2.07a2.67 2.67 0 011.91.69 2.63 2.63 0 01.87 1.85l.61 14.33z" fill="#ffbd3b"/><circle cx="217.26" cy="232.05" r="7.56" fill="#ffbd3b"/><circle cx="217.26" cy="232.05" r="5.25" fill="#fafafa"/><path d="M217.26 237.68a5.63 5.63 0 115.62-5.63 5.64 5.64 0 01-5.62 5.63zm0-10.51a4.88 4.88 0 104.87 4.88 4.89 4.89 0 00-4.87-4.88zM261.79 200.34h-36a3.17 3.17 0 00-3.17 3.17v13a3.17 3.17 0 003.17 3.17h.42v3.11l3.61-3.11h32a3.17 3.17 0 003.17-3.17v-13a3.17 3.17 0 00-3.2-3.17z" fill="#ffbd3b"/><path d="M261.79 200.34h-36a3.17 3.17 0 00-3.17 3.17v13a3.17 3.17 0 003.17 3.17h.42v3.11l3.61-3.11h32a3.17 3.17 0 003.17-3.17v-13a3.17 3.17 0 00-3.2-3.17z" fill="#fff" opacity=".4"/><path d="M230.72 209.82a2.16 2.16 0 112.17 2.08 2.07 2.07 0 01-2.17-2.08zm3.74 0a1.58 1.58 0 10-1.57 1.57 1.52 1.52 0 001.57-1.57zM239 210.32a1.49 1.49 0 01-1.55 1.57 1.29 1.29 0 01-1.1-.52v.49h-.54v-4.32h.56v1.7a1.32 1.32 0 011.08-.49 1.49 1.49 0 011.55 1.57zm-.56 0a1 1 0 10-1 1.08 1 1 0 001.04-1.08zM238.75 212.83l.18-.43a.69.69 0 00.46.15c.29 0 .46-.19.46-.54v-3.23h.55V212a.92.92 0 01-1 1 1.11 1.11 0 01-.65-.17zm1-5a.36.36 0 01.37-.36.36.36 0 01.38.35.36.36 0 01-.38.37.35.35 0 01-.37-.37zM244.24 210.5h-2.5a1 1 0 001.12.9 1.16 1.16 0 00.89-.37l.31.36a1.69 1.69 0 01-2.88-1.07 1.51 1.51 0 011.55-1.57 1.48 1.48 0 011.52 1.58 1 1 0 01-.01.17zm-2.5-.4h2a1 1 0 00-2 0zM244.74 210.32a1.54 1.54 0 011.63-1.57 1.36 1.36 0 011.25.65l-.42.28a1 1 0 00-.84-.45 1.09 1.09 0 000 2.17 1 1 0 00.84-.44l.42.27a1.37 1.37 0 01-1.25.66 1.55 1.55 0 01-1.63-1.57zM250.12 211.68a1.1 1.1 0 01-.68.21.87.87 0 01-1-1v-1.7h-.53v-.45h.53v-.68h.56v.68h.88v.45H249v1.67a.45.45 0 00.48.52.69.69 0 00.43-.14zM250.69 207.82a.37.37 0 01.38-.36.36.36 0 01.38.35.38.38 0 01-.76 0zm.1 1h.56v3.08h-.56zM255.14 208.78l-1.35 3.08h-.57l-1.35-3.08h.59l1 2.47 1.08-2.47zM258.35 210.5h-2.5a1 1 0 001.12.9 1.16 1.16 0 00.89-.37l.3.36a1.51 1.51 0 01-1.21.5 1.55 1.55 0 01-1.66-1.57 1.51 1.51 0 011.55-1.57 1.48 1.48 0 011.52 1.58 1 1 0 01-.01.17zm-2.5-.4h2a1 1 0 00-2 0z" fill="#fff"/><path d="M249.9 115.78a7.48 7.48 0 10-13.9 3.78c.29.48.65.83 1 1.34l4.35 5.75a1.35 1.35 0 002.16 0l4.27-5.66a15.94 15.94 0 001.09-1.44 7.46 7.46 0 001.03-3.77zm-7.48 3.22a3.3 3.3 0 113.29-3.3 3.3 3.3 0 01-3.29 3.3z" fill="#ffbd3b"/><path d="M201.44 410.65h-1.39v-.51h3.36v.51H202v3.56h-.58zM203.36 412.67a1.6 1.6 0 111.61 1.58 1.53 1.53 0 01-1.61-1.58zm2.64 0a1 1 0 10-2.07 0 1 1 0 102.07 0zM209.07 414a1 1 0 01-.67.22.88.88 0 01-1-1v-1.69h-.52v-.46h.52v-.67h.6v.67h.88v.46H208v1.67a.45.45 0 00.48.52.75.75 0 00.44-.15zM212.19 412.35v1.86h-.53v-.4a1.17 1.17 0 01-1 .44c-.7 0-1.14-.37-1.14-.91s.32-.9 1.23-.9h.89v-.11c0-.47-.27-.75-.83-.75a1.5 1.5 0 00-1 .34l-.24-.42a2 2 0 011.28-.4 1.15 1.15 0 011.34 1.25zm-.56.92v-.43h-.86c-.55 0-.71.22-.71.48s.25.5.68.5a.89.89 0 00.89-.55zM213.22 409.9h.56v4.31h-.56zM219.31 409.9v4.31h-.53v-.49a1.31 1.31 0 01-1.1.53 1.58 1.58 0 010-3.15 1.3 1.3 0 011.08.5v-1.7zm-.55 2.77a1 1 0 10-1 1.09 1 1 0 001-1.09zM220.27 410.18a.37.37 0 01.38-.37.37.37 0 110 .73.37.37 0 01-.38-.36zm.1.95h.56v3.08h-.56zM221.6 413.89l.24-.45a1.94 1.94 0 001.08.32c.52 0 .73-.15.73-.41 0-.7-2-.1-2-1.32 0-.56.5-.93 1.29-.93a2.29 2.29 0 011.12.28l-.24.44a1.62 1.62 0 00-.89-.24c-.49 0-.72.18-.72.42 0 .73 2 .14 2 1.33 0 .56-.51.92-1.33.92a2.29 2.29 0 01-1.28-.36zM226.64 414a1 1 0 01-.68.22.88.88 0 01-1-1v-1.69h-.53v-.46h.57v-.67h.56v.67h.88v.46h-.88v1.67a.45.45 0 00.48.52.7.7 0 00.43-.15zM229.76 412.35v1.86h-.53v-.4a1.18 1.18 0 01-1 .44c-.69 0-1.14-.37-1.14-.91s.32-.9 1.24-.9h.89v-.11c0-.47-.28-.75-.83-.75a1.55 1.55 0 00-1 .34l-.23-.42a2 2 0 011.28-.4 1.15 1.15 0 011.32 1.25zm-.56.92v-.43h-.86c-.56 0-.71.22-.71.48s.25.5.68.5a.89.89 0 00.89-.55zM233.71 412.44v1.77h-.55v-1.71c0-.6-.31-.9-.84-.9a.92.92 0 00-1 1v1.58h-.56v-3.08h.53v.47a1.33 1.33 0 011.12-.5 1.19 1.19 0 011.3 1.37zM234.48 412.67a1.54 1.54 0 011.63-1.57 1.39 1.39 0 011.26.66l-.43.27a1 1 0 00-.84-.44 1.09 1.09 0 000 2.17 1 1 0 00.84-.44l.43.26a1.4 1.4 0 01-1.26.67 1.55 1.55 0 01-1.63-1.58zM240.81 412.86h-2.5a1 1 0 001.12.9 1.16 1.16 0 00.89-.37l.31.36a1.58 1.58 0 01-1.22.5 1.55 1.55 0 01-1.66-1.58 1.51 1.51 0 011.55-1.57 1.48 1.48 0 011.52 1.59 1 1 0 01-.01.17zm-2.5-.4h2a1 1 0 00-2 0zM205.1 418.78v9.7h-2.25v-7.9h-1.94v-1.8zM209.41 427.24a3.31 3.31 0 01-.37 1.38l-.8 2h-1.37l.61-2.2a1.21 1.21 0 01-.75-1.18 1.34 1.34 0 112.68 0zM214 418.78v9.7h-2.3v-7.9h-1.94v-1.8zM215.64 423.63c0-3.2 1.77-5 4.16-5s4.16 1.82 4.16 5-1.76 5-4.16 5-4.16-1.8-4.16-5zm6.06 0c0-2.2-.78-3.12-1.9-3.12s-1.89.92-1.89 3.12.78 3.12 1.89 3.12 1.9-.91 1.9-3.12zM225.05 423.63c0-3.2 1.78-5 4.17-5s4.16 1.82 4.16 5-1.76 5-4.16 5-4.17-1.8-4.17-5zm6.07 0c0-2.2-.78-3.12-1.9-3.12s-1.89.92-1.89 3.12.78 3.12 1.89 3.12 1.9-.91 1.9-3.12zM251.46 424.21v4.27h-2.16v-3.93c0-1.21-.54-1.77-1.42-1.77s-1.65.63-1.65 2v3.74h-2.16v-3.93c0-1.21-.51-1.77-1.41-1.77s-1.64.63-1.64 2v3.74h-2.16V421h2.06v.86a3 3 0 012.35-1 2.78 2.78 0 012.45 1.22 3.37 3.37 0 012.69-1.22c1.78.05 3.05 1.08 3.05 3.35z" fill="#263238"/><circle cx="186.8" cy="418.02" r="8.37" transform="rotate(-76.77 186.783 418.01)" fill="#ffbd3b"/><path d="M183.42 419.54a13.07 13.07 0 012.15-.13c1.37 0 3.33-.07 5.67-.09l-.17.37c-.67-.76-1.38-1.6-2.14-2.47l-.13-.15.13-.17 2.11-2.63.2.42h-7.87l.24-.23c0 2.54-.06 4.68-.1 6.18a14.85 14.85 0 01-.14 2.37 16.51 16.51 0 01-.14-2.37c0-1.5-.07-3.64-.09-6.18v-.23h8.59l-.34.42-2.13 2.63v-.32l2.1 2.5.32.37h-.49c-2.34 0-4.3-.06-5.67-.09a12.25 12.25 0 01-2.1-.2z" fill="#fafafa"/><path d="M322.22 403.73h-25.3a4.85 4.85 0 00-4.85 4.85v19.92a4.85 4.85 0 004.85 4.84h.64v4.75l5.51-4.75h19.15a4.85 4.85 0 004.85-4.84v-19.92a4.85 4.85 0 00-4.85-4.85z" fill="#ffbd3b"/><path d="M299.33 412.87v10.22a.4.4 0 00.4.4h21.42a.4.4 0 00.39-.41l-.05-3.74a.39.39 0 00-.07-.23l-3.08-4.11a.38.38 0 00-.31-.16h-3.54a.4.4 0 01-.4-.39v-1.55a.39.39 0 00-.39-.4h-14a.4.4 0 00-.37.37z" fill="#fafafa"/><path d="M315.09 415.71V419a.23.23 0 00.23.23l4.73-.08a.23.23 0 00.18-.36l-2.23-3.28a.21.21 0 00-.19-.1l-2.52.07a.22.22 0 00-.2.23z" fill="#ffbd3b"/><path fill="#fafafa" d="M298.9 423.8h23.07v.71H298.9z"/><path d="M306.53 424.07a2.29 2.29 0 11-2.28-2.28 2.28 2.28 0 012.28 2.28z" fill="#ffbd3b"/><path d="M305.59 424.07a1.35 1.35 0 11-1.34-1.34 1.34 1.34 0 011.34 1.34z" fill="#fafafa"/><path d="M314.08 423.49c-.06 0-.11-2.47-.11-5.51s0-5.51.11-5.51.1 2.47.1 5.51-.05 5.51-.1 5.51zM319 424.07a2.28 2.28 0 11-2.28-2.28 2.28 2.28 0 012.28 2.28z" fill="#ffbd3b"/><path d="M318 424.07a1.35 1.35 0 11-1.35-1.34 1.35 1.35 0 011.35 1.34z" fill="#fafafa"/><path d="M316.69 419.86c0 .06-.33.1-.73.1s-.73 0-.73-.1.33-.11.73-.11.73.05.73.11z" fill="#ffbd3b"/></g><g><path d="M555.34 252.13s16.13 2.72 17.43 3.07 6.41 2.77 6.67 4.33a46.79 46.79 0 010 6.15s-.93.75-1.5-.75a15.31 15.31 0 01-.49-4.47l-2.86-1.1 1.56 2.77.26 6.49s-2-.18-2.39-1.73a15.31 15.31 0 01-.38-3.29l-2.08-1.76 1.56 2.11.52 4.67s-1.52.5-2-.54a16.1 16.1 0 01-.52-4.13l-5.88-2.06-3.89 2.17-7.27-4.06z" fill="#ffbe9d"/><path d="M498.86 212.26c.08.32 19.44 27 19.44 27l38.9 12.1-1.77 14.61-47.67-9.6-16.92-19.42z" fill="#ffbd3b"/><path d="M498.86 212.26c.08.32 19.44 27 19.44 27l38.9 12.1-1.77 14.61-47.67-9.6-16.92-19.42z" opacity=".2"/><rect x="348.57" y="248.95" width="85.58" height="15.49" rx="3.05" fill="#f5f5f5"/><path d="M431.11 264.44s.17 0 .5-.07a3 3 0 002.44-2.63v-3.3-4.14-2.37a3 3 0 00-1-2.14 2.91 2.91 0 00-1.13-.59 4.59 4.59 0 00-1.35-.09h-9.27l-69.61.08a2.8 2.8 0 00-2.07.91 2.87 2.87 0 00-.72 2.15V261a4.18 4.18 0 00.1 1.14 2.82 2.82 0 002.39 2.05h19.66l31.29.06 21.1.08 5.74.05h2-2l-5.74.05-21.1.08-31.29.06h-19.79a3.41 3.41 0 01-1.24-.4 3.31 3.31 0 01-1.58-2 4.06 4.06 0 01-.12-1.28v-3.71-5a3.45 3.45 0 01.87-2.5 3.28 3.28 0 012.45-1.08l69.61.08h9.27a5.76 5.76 0 011.43.12 3.16 3.16 0 011.24.66 3.22 3.22 0 011.11 2.35v6.52c0 1.25 0 2.34-.05 3.32a3.16 3.16 0 01-1.21 2.09 3 3 0 01-1.38.57 1.78 1.78 0 01-.55.13z" fill="#263238"/><circle cx="644.95" cy="421.54" r="40.89" transform="rotate(-2.75 644.765 421.495)" fill="#263238"/><path d="M604.08 420.84v.11a40.89 40.89 0 0081.77 1.18v-.11z" fill="#263238"/><path d="M616.25 421.12a28.71 28.71 0 1029.12-28.29 28.71 28.71 0 00-29.12 28.29z" fill="#fafafa"/><path d="M645.37 392.83a28.71 28.71 0 00-29.12 28.29l57.41.83a28.71 28.71 0 00-28.29-29.12z" fill="#e0e0e0"/><path d="M627.47 421.28a17.49 17.49 0 1017.74-17.23 17.49 17.49 0 00-17.74 17.23z" fill="#263238"/><path d="M625.55 361.58s41.86-12.66 59.17 32.82l-87.6 27.14z" fill="#ffbd3b"/><circle cx="392.67" cy="421.54" r="40.89" transform="rotate(-2.75 392.567 421.485)" fill="#263238"/><path d="M351.79 420.84v.11a40.89 40.89 0 0081.77 1.18V422z" fill="#263238"/><path d="M364 421.12a28.71 28.71 0 1029.12-28.29A28.71 28.71 0 00364 421.12z" fill="#fafafa"/><path d="M393.08 392.83A28.71 28.71 0 00364 421.12l57.41.83a28.71 28.71 0 00-28.33-29.12z" fill="#e0e0e0"/><path d="M375.18 421.28a17.49 17.49 0 1017.74-17.23 17.49 17.49 0 00-17.74 17.23z" fill="#263238"/><path d="M450.83 405.12c-.23.12-21.52-3.29-21.52-3.29a13 13 0 01-9.71 5.08c-9.2.44-18.19.85-26 1.2a13.2 13.2 0 00-12.6 13.73 13.21 13.21 0 0012.67 12.64l45.33 1.79c7.45.29 17.35-4.23 22-10.06z" fill="#455a64"/><path d="M339.58 387s-1.94-39.85 35.51-48.15v-5.11h131.18V346s-19.25 23.19-13 42.44 8.25 21.22 8.25 21.22h74.66a51 51 0 009.43-28.29c.4-16.9-6.62-45.79-11.87-64.26-4.74-16.85-7.74-30.89-7.74-30.89l22.4-7.47S629.85 333 631.54 336s7.45 10.16 6.1 25.74-38.64 63.64-48.42 69.06-18.62 5.76-27.43 7.11c-7.64 1.18-64.16.4-78.95.17a29 29 0 01-14.6-4.05c-4.42-2.68-7.74-7.12-11.41-14.4L449 404.39z" fill="#ffbd3b"/><path d="M349.62 384.26l-16.52 25.88a4 4 0 004.91 5.92 19.24 19.24 0 005.55-3.76c7.55-7.19 21-26.13 21-26.13z" fill="#455a64"/><path d="M468.11 388.92s0-.13.1-.38l.33-1.09a28.76 28.76 0 00.87-4.27 30.14 30.14 0 00-2.56-15.62 32.72 32.72 0 00-6.09-9.15 39.94 39.94 0 00-10-7.66 50.62 50.62 0 00-13.1-4.88 69 69 0 00-15-1.55 113 113 0 00-15 1.11c-4.84.65-9.48 1.45-13.86 2.45a82.08 82.08 0 00-22.25 8.23 55.06 55.06 0 00-12.71 9.71 50.222 50.222 0 00-2.9 3.26l-.71.89a1.79 1.79 0 01-.26.29 33.61 33.61 0 013.72-4.58 54 54 0 0112.68-9.89 81.36 81.36 0 0122.33-8.38c4.38-1 9-1.83 13.89-2.49a113.77 113.77 0 0115.12-1.12 68.81 68.81 0 0115.08 1.57 51.23 51.23 0 0113.22 5 40.21 40.21 0 0110.13 7.78 32.92 32.92 0 016.11 9.3 30 30 0 012.42 15.8 25.52 25.52 0 01-1 4.27c-.16.46-.28.81-.38 1.08a2.11 2.11 0 01-.18.32z" fill="#263238"/><path d="M460.56 380c-.06 0 .21-.63.49-1.77a12.94 12.94 0 00.15-5 20.55 20.55 0 00-2.44-6.94 23.7 23.7 0 00-2.42-3.64 21.94 21.94 0 00-3.25-3.37 28.39 28.39 0 00-7.8-4.56 36.71 36.71 0 00-7.16-2 46.88 46.88 0 00-5-.57 14.69 14.69 0 01-1.84-.14 1.61 1.61 0 01.48 0h1.37a37.4 37.4 0 015 .41 34.58 34.58 0 017.28 1.87 28.51 28.51 0 018 4.61 22.91 22.91 0 013.32 3.45 25 25 0 012.43 3.73 19.9 19.9 0 012.38 7.12 12.32 12.32 0 01-.31 5.06 7.19 7.19 0 01-.48 1.29 1.76 1.76 0 01-.2.45z" fill="#f5f5f5"/><path d="M434.87 345.06a52.54 52.54 0 0119.75 8 34.91 34.91 0 0113.23 16.44c2.62 6.74 2.23 15.67-.53 21.25l9.27.77c3.12-10.41-.27-23.18-7.77-31.33a46 46 0 00-33.95-15.17" opacity=".4"/><rect x="342.24" y="263.66" width="98.25" height="70.11" rx="8.58" fill="#455a64"/><path d="M440.49 279.3c0 .15-22.09.26-49.33.26s-49.34-.11-49.34-.26 22.08-.26 49.34-.26 49.33.12 49.33.26zM506.21 338.41c0 .14-29.49.26-65.85.26s-65.85-.12-65.85-.26 29.48-.26 65.85-.26 65.85.12 65.85.26z" fill="#263238"/><path d="M506.27 333.77a11.34 11.34 0 002.38-5.88c.2-3.29-1.3-7.41-4.85-7.41h-45.3a13.29 13.29 0 00-13.29 13.29h61.06z" fill="#455a64"/><path d="M566 286.22l-7.88-16.43a10 10 0 014-12.85l23.56-14.05a7.9 7.9 0 014.07-1.13h5.09l2 33.21L589 278l5 8.08z" fill="#ffbd3b"/><path d="M594.91 243s8.06 1.85 9.07 14.27-7.11 16.3-7.11 16.3z" fill="#ebebeb"/><path d="M568.75 263.35s-16.29 7.72-18.28 9c-1.38.88-2.56 2.42-1.48 5.13 1.84 4.61 9.46.27 9.46.27l15.17-7.58s5.83-2.75 3.67-6.2c-2.41-3.86-8.54-.62-8.54-.62z" fill="#263238"/><path d="M545.69 260.54s15.31 2.62 16.61 3 6.4 2.77 6.66 4.33a46.79 46.79 0 010 6.15s-.92.75-1.5-.75a15.77 15.77 0 01-.49-4.48l-2.86-1.1 1.56 2.77.26 6.5s-2-.18-2.38-1.74a15.18 15.18 0 01-.38-3.28l-2.09-1.77 1.56 2.11.53 4.68s-1.52.49-2-.55a16.06 16.06 0 01-.52-4.13l-5.88-2.05-3.89 2.17-6.12-3.4z" fill="#ffbe9d"/><path d="M569.53 239.22c0 6.2-2.85 11.22-6.36 11.22s-6.36-5-6.36-11.22 2.84-11.22 6.36-11.22 6.36 5 6.36 11.22z" fill="#263238"/><path d="M564.21 246.93l3.5 12.12a3.14 3.14 0 001.63-3.58c-.88-4.15-1.38-7.1-2.34-10.74-.12-.36-2.79 2.2-2.79 2.2" fill="#263238"/><path d="M495 393.57c-.34-1-.7-2-1-3.07s-.68-2-.94-3a32.21 32.21 0 01-.88-4.57c-5.9 24 3.11 40.93 18.57 42.12 22.6 1.74 50.15 3 61.29.08 20.31-5.33 27.76-22.27 29.54-25.06s17.93-32.32 8-60.75-27.15-58.62-27.15-58.62L566 286.22s3 14 7.77 30.84c5.25 18.47 12.27 47.36 11.87 64.26a51 51 0 01-9.43 28.29h-74.65s-1.6-1.6-6.53-16" opacity=".4"/><path d="M336.6 380.78l.53-5.7 136.28 15.7a13.46 13.46 0 0111.68 15.72l-.61 3.45-141-20.49a8 8 0 01-6.88-8.68z" fill="#ffbd3b"/><path d="M336.6 380.78l.53-5.7 136.28 15.7a13.46 13.46 0 0111.68 15.72l-.61 3.45-141-20.49a8 8 0 01-6.88-8.68z" opacity=".6"/><path d="M601.58 418.9s30-33 36.19-58.94a58.33 58.33 0 019.29.69s-17.74 48.23-45.48 58.25z" opacity=".3"/><path d="M637.33 348.34a4.81 4.81 0 01.16.83c.08.55.24 1.36.34 2.41a36.74 36.74 0 01-.23 9 45.46 45.46 0 01-4 12.68 143.7 143.7 0 01-7.94 14.2 189.6 189.6 0 01-17.56 23.74c-2.44 2.89-4.46 5.19-5.86 6.77l-1.62 1.81a7 7 0 01-.59.61 4.46 4.46 0 01.51-.67l1.55-1.88 5.73-6.87a206.16 206.16 0 0017.4-23.78 152.39 152.39 0 008-14.13 46.41 46.41 0 004-12.54 40 40 0 00.39-8.88c-.07-1.05-.2-1.86-.24-2.42a4.42 4.42 0 01-.04-.88zM585.47 418.66a40.08 40.08 0 01-4.81-4.34 41.15 41.15 0 01-4.44-4.71 80.15 80.15 0 019.25 9.05zM496.43 417.65a13.89 13.89 0 012.21-4.27 14.07 14.07 0 013.15-3.63c.11.11-1.26 1.75-2.72 3.92s-2.5 4.04-2.64 3.98zM438.79 436.7a20.14 20.14 0 004.09-5.2 17.9 17.9 0 002-6.85 15.91 15.91 0 00-7.18-15 17.87 17.87 0 00-6.58-2.75 20.11 20.11 0 00-6.61-.09 1.93 1.93 0 01.44-.13 10.9 10.9 0 011.32-.26 15.69 15.69 0 014.92.12 17.89 17.89 0 016.78 2.71 16.16 16.16 0 017.39 15.49 17.89 17.89 0 01-2.16 7 15.5 15.5 0 01-3 3.9 10.27 10.27 0 01-1 .87 1.87 1.87 0 01-.41.19zM389 426.25a21.48 21.48 0 01-.49-4.8 22.71 22.71 0 010-4.84 44.88 44.88 0 01.46 9.64zM392.64 426.26a46.3 46.3 0 01-1.23-9.66 23.52 23.52 0 01.87 4.8 23.28 23.28 0 01.36 4.86zM448.85 333.77c0 .14-16.57.26-37 .26s-37-.12-37-.26 16.57-.26 37-.26 37 .11 37 .26z" fill="#263238"/><path d="M395.19 333.72c-.15 0-.26-19-.26-42.38s.07-42.34.26-42.34.26 19 .26 42.39-.12 42.33-.26 42.33zM385 333.65c-.14 0 .57-19 1.59-42.36s2-42.35 2.1-42.34-.56 19-1.58 42.36-1.92 42.35-2.11 42.34z" fill="#263238"/><path d="M362.09 449.3a3.25 3.25 0 01-.44-.45c-.26-.3-.69-.73-1.16-1.34a38.38 38.38 0 01-3.69-5.42 41.43 41.43 0 01.17-41.48 37.66 37.66 0 013.73-5.39c.48-.61.91-1 1.18-1.34s.43-.45.44-.43a2.52 2.52 0 01-.36.5c-.24.33-.65.77-1.1 1.4a42.27 42.27 0 00-3.74 46.56 42.57 42.57 0 003.53 5.47c.44.63.84 1.08 1.08 1.41s.38.49.36.51zM505.35 373.11l-.31.58L499 385l-8.44 8.12 16.87 22.46 14.05-2.33s-1.57-3.21-8.63-3.83L510.18 396l9.91-15.36" fill="#455a64"/><path fill="#e0e0e0" d="M490.58 393.15l16.87 22.46 14.05-2.33-1.93-1.85-11.53 1.26-15.66-21.27-1.8 1.73z"/><path d="M511.75 403.28c-.08.16-1-.17-2 .05s-1.81.79-1.94.67.5-1.06 1.82-1.29 2.23.44 2.12.57zM511 400c-.12.12-.89-.6-2-.64s-2 .63-2.09.5.07-.31.43-.6a2.71 2.71 0 011.68-.52 2.63 2.63 0 011.64.63c.27.28.34.55.34.63zM510.35 395.65c-.14.11-.76-.62-1.79-.8s-1.86.29-2 .14.09-.29.46-.5a2.47 2.47 0 013 .54c.34.32.4.58.33.62zM513.55 391.7c-.15.08-.68-.65-1.65-1.07s-1.85-.36-1.89-.53 1-.58 2.15 0 1.56 1.55 1.39 1.6zM514.91 388.51c-.07.05-.62-.43-1.47-1.27l-1.44-1.49a4.6 4.6 0 01-.84-1 1.13 1.13 0 01-.06-.87.87.87 0 01.77-.58 2.56 2.56 0 011.43.46 5.27 5.27 0 011 .83 4.87 4.87 0 011.07 1.91 2.63 2.63 0 010 2 15 15 0 00-.42-1.83 5 5 0 00-1.07-1.65 4.58 4.58 0 00-.91-.7 2.33 2.33 0 00-1.06-.37.26.26 0 00-.24.17.54.54 0 000 .41 4.42 4.42 0 00.7.88l1.37 1.59a6 6 0 011.17 1.51z" fill="#263238"/><path d="M515.48 388.84c-.07 0-.14-.74.48-1.71a3.56 3.56 0 014-1.45.68.68 0 01.3.47.84.84 0 01-.1.47 2 2 0 01-.43.53 6.69 6.69 0 01-.9.73 6.23 6.23 0 01-1.76.82 2.88 2.88 0 01-1.76.13c0-.1.65-.16 1.62-.55a7 7 0 001.57-.87 6.36 6.36 0 00.8-.7 1.59 1.59 0 00.31-.37c.05-.14 0-.1 0-.13a1.11 1.11 0 00-.43-.09 3.11 3.11 0 00-.53 0 3.5 3.5 0 00-1 .24 3.43 3.43 0 00-1.39 1 12.41 12.41 0 00-.78 1.48z" fill="#263238"/><path d="M501.72 390.86a1.69 1.69 0 11-1.94-1.39 1.7 1.7 0 011.94 1.39z" fill="#e0e0e0"/><path d="M556.55 383.91l4.51 29.28 36.47-5.42c-.74-3.45-20.64-7.64-20.64-7.64l-2.12-18.88z" fill="#455a64"/><path d="M565.38 400.23a1.5 1.5 0 00-.78 1.85 1.46 1.46 0 001.83.79 1.59 1.59 0 00.81-2 1.5 1.5 0 00-2-.61M561.06 413.19l-.34-3 35.09-4.09s1.73.47 1.72 1.64z" fill="#e0e0e0"/><path d="M577.45 399.86c0 .18-.85.39-1.65 1.09s-1.14 1.52-1.32 1.48-.06-1.12.91-1.95 2.08-.79 2.06-.62zM581.51 400.87c.07.17-.66.58-1.15 1.43s-.55 1.66-.73 1.68-.44-1 .19-2 1.66-1.28 1.69-1.11zM584.37 405.12c-.16.07-.54-.79-.23-1.83s1.09-1.56 1.19-1.42-.34.74-.59 1.6-.2 1.61-.37 1.65zM576.49 395.61c0 .17-.9.05-1.9.26s-1.73.66-1.85.52.55-.89 1.72-1.13 2.1.19 2.03.35zM575 391.41a3.47 3.47 0 01-1.83.26 8.37 8.37 0 01-2-.3A8.56 8.56 0 01570 391a2 2 0 01-.61-.35.76.76 0 01-.22-.93 1 1 0 01.72-.53 2.27 2.27 0 01.69 0 5.67 5.67 0 011.2.22 6.63 6.63 0 011.85.85c1 .66 1.35 1.28 1.29 1.33s-.57-.43-1.52-.95a7.12 7.12 0 00-1.77-.67 5.39 5.39 0 00-1.1-.17c-.4 0-.73 0-.8.19s0 .09.07.2a1.85 1.85 0 00.45.25 10.78 10.78 0 001.05.41 10.28 10.28 0 001.87.41 12.88 12.88 0 011.83.15z" fill="#263238"/><path d="M574.79 391.7c-.06 0-.51-.55-.75-1.69a6.18 6.18 0 010-2 6.82 6.82 0 01.3-1.18 1.52 1.52 0 011-1.09.87.87 0 01.84.39 2.61 2.61 0 01.29.65 4.07 4.07 0 01.18 1.23 4.25 4.25 0 01-.5 2c-.57 1-1.28 1.37-1.3 1.31s.49-.51.9-1.5a4.17 4.17 0 00.32-1.8 3.53 3.53 0 00-.19-1.05c-.11-.38-.3-.67-.44-.61s-.45.36-.55.69a6.06 6.06 0 00-.31 1.06 6.75 6.75 0 00-.08 1.87c.09 1.02.38 1.68.29 1.72zM527.86 315.13l-31.27 68.14 20.65 12.4 43.24-81.99" fill="#263238"/><path d="M579.43 397.22l-22.43 3.6-13.43-80.14-66.35 4.81A16.16 16.16 0 01472 325c-18.63-5.11-16.11-28.87-14.31-32.68l91.81-2.63a19.54 19.54 0 0119.92 16.83z" fill="#263238"/><path d="M456.76 296.08l.33-33.88s-4.37-22-5.67-30.69c-2-13.44-4.76-19.83 17.26-29.38l4.82-1.86 7.45.1c8.88.67 18.24 8.7 18.46 14l8.59 76.37z" fill="#ffbd3b"/><path d="M458.14 210s-6.22 13.38-5 25.57l23.17 22.24c5.19 5.78 11.69 8.24 20 8.74l47.94 5.24 1.33-12.54L500 246.33c-1.82-.34-2.73-2.23-4.12-3.45L458.14 210" fill="#ffbd3b"/><path d="M454.39 213.86a3.28 3.28 0 01.92-.62 11.43 11.43 0 013.1-.87 16 16 0 015.18 0 5.37 5.37 0 011.52.52 15.29 15.29 0 011.41 1c.92.72 1.85 1.55 2.8 2.45 1.92 1.79 3.74 4.06 5.87 6.36s4.46 4.77 7 7.36 5.27 5.3 8.19 8.1c1.47 1.4 3 2.82 4.59 4.21.81.66 1.61 1.44 2.38 2.17a5.76 5.76 0 002.65 1.56l45.67 12.9.21.06v.22c-.09.89-.2 1.84-.3 2.81-.35 3.33-.7 6.63-1 9.73v.26h-.26L524 269.82l-9.6-1.05-9.19-.93c-3-.33-5.89-.67-8.7-1.08a39.17 39.17 0 01-8.06-1.87 29.68 29.68 0 01-6.78-3.65c-2-1.41-3.88-2.88-5.61-4.33-6.85-5.84-11.88-11.07-15.37-14.63-1.73-1.79-3.06-3.2-3.95-4.16l-1-1.1-.33-.39s.13.11.37.35.59.61 1 1.07l4 4.1c3.53 3.51 8.6 8.7 15.46 14.49 1.73 1.43 3.58 2.89 5.59 4.28a29.9 29.9 0 006.72 3.58 39.13 39.13 0 008 1.82c2.81.4 5.71.74 8.69 1.06l9.19.9 9.6 1.05 20.3 2.21-.29.23c.33-3.1.68-6.4 1-9.74.11-1 .21-1.92.3-2.81l.19.28-45.6-12.95a6.08 6.08 0 01-2.92-1.69c-.81-.77-1.54-1.49-2.37-2.18-1.61-1.4-3.12-2.83-4.59-4.23-2.92-2.81-5.64-5.54-8.17-8.14s-4.85-5.08-7-7.41-3.91-4.59-5.81-6.38a33.31 33.31 0 00-2.76-2.45 11.85 11.85 0 00-1.38-1 4.83 4.83 0 00-1.45-.51 15.51 15.51 0 00-5.11-.08 11.55 11.55 0 00-3.09.79 7 7 0 00-.89.59z" fill="#263238"/><path d="M466.36 170.88l2.32 33a10.28 10.28 0 0010.26 9.55 10.28 10.28 0 0010.26-10.95c-.21-3.14-.39-5.71-.39-5.71s8-1.24 8.08-9.23c.06-4.61-.74-15.07-1.42-23.09a10.47 10.47 0 00-10.47-9.58h-4.83a14.76 14.76 0 00-13.81 16.01z" fill="#ffbe9d"/><path d="M488.82 196.64a18.61 18.61 0 01-10.41-2.95s2.46 5.74 10.43 5z" fill="#eb996e"/><path d="M493.68 174.7a1.14 1.14 0 01-1.1 1.15 1.08 1.08 0 01-1.18-1 1.15 1.15 0 011.1-1.16 1.1 1.1 0 011.18 1.01zM494.1 172.45c-.15.15-1-.49-2.24-.49s-2.12.62-2.26.47.08-.34.48-.62a3.08 3.08 0 011.8-.56 3 3 0 011.78.58c.34.28.5.55.44.62zM482.16 174.7a1.13 1.13 0 01-1.1 1.15 1.08 1.08 0 01-1.18-1 1.15 1.15 0 011.1-1.16 1.1 1.1 0 011.18 1.01zM482 172.68c-.14.15-1-.49-2.24-.49s-2.12.62-2.25.47.07-.34.47-.62a3.08 3.08 0 011.8-.56 3 3 0 011.78.57c.44.29.55.56.44.63zM486.49 181.78a8.18 8.18 0 012-.36c.31 0 .61-.1.66-.31a1.5 1.5 0 00-.21-.93l-.94-2.38a40.28 40.28 0 01-2.08-6.24 42.44 42.44 0 012.58 6.05l.88 2.4a1.81 1.81 0 01.17 1.23.79.79 0 01-.52.46 2.21 2.21 0 01-.53.07 8 8 0 01-2.01.01zM482.88 182.63c.2 0 .2 1.32 1.34 2.26s2.56.8 2.57 1-.32.25-.92.27a3.32 3.32 0 01-2.14-.75 2.88 2.88 0 01-1-1.9c-.09-.51.06-.89.15-.88zM482.35 167.87c-.12.33-1.34.18-2.78.35s-2.61.57-2.8.27.12-.46.59-.78a4.84 4.84 0 014.25-.47c.53.21.8.47.74.63zM493.64 168.9c-.21.28-1.06 0-2.07 0s-1.88.18-2.08-.11.05-.42.43-.68a2.83 2.83 0 011.69-.46 2.89 2.89 0 011.65.56c.36.27.48.55.38.69z" fill="#263238"/><path d="M469.05 176.88c-.14-.06-5.49-1.63-5.31 3.83s5.61 4.16 5.62 4-.31-7.83-.31-7.83z" fill="#ffbe9d"/><path d="M467.62 182.7s-.09.07-.25.15a1 1 0 01-.71 0 2.35 2.35 0 01-1.15-2.07 3.16 3.16 0 01.22-1.37 1.11 1.11 0 01.69-.76.49.49 0 01.57.25c.08.15.05.26.08.27s.11-.1.06-.32a.59.59 0 00-.23-.34.71.71 0 00-.53-.12 1.32 1.32 0 00-1 .88 3.17 3.17 0 00-.28 1.53 2.45 2.45 0 001.46 2.31 1 1 0 00.86-.17c.21-.11.23-.23.21-.24z" fill="#eb996e"/><path d="M466 176.69a2.88 2.88 0 012.63 1.35c.35.78.43 1.66.78 2.44a2 2 0 002 1.29 1.68 1.68 0 001.14-1.25 4.53 4.53 0 000-1.76c-.32-2.55-.85-5.07-.95-7.64a13 13 0 011.61-7.42 7.14 7.14 0 016.38-3.59c1.7.14 3.25 1 4.94 1.26a6.68 6.68 0 005.54-1.85 11.11 11.11 0 011-.75 3.09 3.09 0 00-.57-1.68c-3.35-3.1-9.37-4-13.79-2.85a15.93 15.93 0 00-10.45 8.37c-1.9 4.14-1.34 9.89-.29 14.08" fill="#263238"/><path d="M495.56 163.21s-20.94-6.74-30 11.38a33.78 33.78 0 01-1.36-7c0-1.62 1-11.29 10.92-14.33 0 .04 14.99-5.68 20.44 9.95z" fill="#ffbd3b"/><path d="M477.56 163.66a4.56 4.56 0 007.26.66 2.68 2.68 0 005.07-.26 6.21 6.21 0 002 1.49 2.08 2.08 0 002.33-.49 2 2 0 00-.15-2.4 4.88 4.88 0 00-2.12-1.43 15.35 15.35 0 00-7.9-1.2 10.67 10.67 0 00-6.93 3.77" fill="#263238"/><path d="M495.56 163.21a9.73 9.73 0 00-6.66-3c-6.18-.27-17.74 3.2-23.34 14.4a33.78 33.78 0 01-1.36-7c0-1.62 1-11.29 10.92-14.33 0 .02 14.99-5.7 20.44 9.93z" opacity=".4"/><path d="M466.43 172.47a39.43 39.43 0 0112.2-11.68c4.82-3 12.78-6 18.26-7.44a11.92 11.92 0 015.05-.53 4.55 4.55 0 013.74 3.06c.52 2.07-3.15 5.26-4.88 6.51a55.21 55.21 0 01-5.24 3.1s.05-3.84-6.09-4.63c-8.35-1.07-23.04 11.61-23.04 11.61z" fill="#ffbd3b"/><path d="M459.06 240.52c2.16 5.21 4.34 11.64 7.47 16.33s7.31 8.86 12.51 11c6.54 2.74 14.27 3.18 20.77.38.53-.23 1.57-.52 1.47-1.09 0 0-2.15-.25-2.82-.36-13.13-2.18-14.56-3.78-20.85-8.78-3.92-3.09-12.61-12.46-18.55-17.48" opacity=".3"/><path d="M500.82 278.46a5.49 5.49 0 01-.55 1.22 15.25 15.25 0 01-2.12 3 23 23 0 01-10.15 6.19 46.53 46.53 0 01-11.84 1.77c-1.53.06-2.77.07-3.62.07a7.73 7.73 0 01-1.33-.06 5.86 5.86 0 011.32-.15l3.61-.23a51.81 51.81 0 0011.71-1.9 23.8 23.8 0 0010.06-6 25.64 25.64 0 002.91-3.91z" fill="#263238"/><path d="M557.39 403.21a1 1 0 01-.08-.31c0-.23-.1-.54-.18-.92-.15-.84-.37-2-.64-3.54-.55-3.12-1.32-7.57-2.28-13.06-1.87-11.06-4.45-26.29-7.3-43.11-1.27-7.62-2.48-14.9-3.59-21.55l.26.21-28.71 2.07-8.24.56-2.2.13h-.76.19l.57-.07 2.19-.2 8.23-.7 28.69-2.29h.22v.22c1.12 6.65 2.35 13.93 3.63 21.54 2.79 16.83 5.31 32.07 7.15 43.14.88 5.5 1.6 10 2.11 13.08l.54 3.57c.06.38.1.69.13.92a1.29 1.29 0 01.07.31z" fill="#455a64"/><path d="M550.3 313.54c.09.12-1.66 1.62-3.64 3.64s-3.46 3.79-3.58 3.69a23.82 23.82 0 017.22-7.33z" fill="#455a64"/><path d="M489 203.17s.06.11.12.33a4.69 4.69 0 01.19 1 8.21 8.21 0 01-.48 3.64 9.32 9.32 0 01-3.3 4.32 10 10 0 01-6.41 1.72 11.58 11.58 0 01-6.23-2.34 13.23 13.23 0 01-3.54-4.13 14.28 14.28 0 01-1.36-3.4c-.1-.42-.17-.75-.2-1s0-.35 0-.35a22.69 22.69 0 001.89 4.54 13.71 13.71 0 003.51 3.93 11.33 11.33 0 006 2.2 9.71 9.71 0 006.11-1.59 9.22 9.22 0 003.22-4.06 8.49 8.49 0 00.63-3.49c-.07-.84-.15-1.3-.15-1.32zM503.11 246.84a4.19 4.19 0 01-.22-1c-.11-.79-.24-1.75-.4-2.86-.33-2.55-.76-5.83-1.23-9.46s-.81-7-1-9.48c-.11-1.21-.18-2.2-.22-2.88a3.93 3.93 0 010-1.06 4.93 4.93 0 01.21 1c.11.79.24 1.74.39 2.86.32 2.55.73 5.83 1.18 9.46s.84 7 1.08 9.47c.11 1.22.19 2.2.24 2.89a4.54 4.54 0 01-.03 1.06z" fill="#263238"/></g></svg>